<?xml version="1.0" encoding="UTF-8"?>
<svg id="Capa_1" xmlns="http://www.w3.org/2000/svg" version="1.1" viewBox="0 0 2926.4 1639.13">
  <!-- Generator: Adobe Illustrator 29.9.0, SVG Export Plug-In . SVG Version: 2.1.1 Build 6)  -->
  <defs>
    <style>
      .st0 {
        fill: #058d70;
      }

      .st1 {
        fill: #ef9b7e;
      }

      .st2 {
        fill: #fe6845;
      }

      .st3 {
        fill: #390105;
      }

      .st4 {
        fill: #bc0088;
      }

      .st5 {
        fill: #fff;
      }

      .st6 {
        fill: #016952;
      }

      .st7 {
        fill: #f9a450;
      }

      .st8 {
        fill: #fdf0da;
      }

      .st9 {
        fill: #a21ffa;
      }

      .st10 {
        fill: #ffb31f;
      }

      .st11 {
        fill: #009d8b;
      }

      .st12 {
        fill: #e4704a;
      }

      .st13 {
        fill: #e4caae;
      }

      .st14 {
        fill: #271512;
      }

      .st15 {
        fill: #d63f04;
      }

      .st16 {
        fill: #eec192;
      }

      .st17 {
        fill: #fdfdfd;
      }
    </style>
  </defs>
  <g>
    <path class="st5" d="M1413.46,639.54h0c-6.21-17.58-25.56-31.53-43.57-31.68l-2.04-.14-1.47.29c-9.34.97-19.92,6-22.1,7.08-.95.47-1.92,1-2.9,1.58,1.29-2.2,2.55-4.42,3.74-6.69,12.75-24.16,15.52-36.51,10.61-47.19-2.14-4.64-4.75-8.49-33.56-33.67l-1.24-1.08c-45.04-39.45-96.01-73.23-151.48-100.41-54.56-26.73-112.4-46.55-171.93-58.93-3.21-.67-9.51-1.7-20.37-3.48-9.51-1.55-24.99-4.08-34.48-5.89-2.1-6.22-4.62-14.35-5.47-17.71-.13-3.62-.26-7.29-.4-10.99-3.29-92.29-7.39-207.14-72.28-282.12-19.46-22.48-44.9-37.97-73.58-44.78-27.02-6.42-55.35-4.5-79.77,5.42-36.74,14.91-60.44,45.16-66.88,83.62l-4.76-4.99,3.35,16.75c-.06.77-.12,1.54-.17,2.32-45.63,14.2-95.21,36-147.63,64.94-17.53,9.68-42.57,26.36-62.31,50.89-9.59,11.91-16.79,24.42-21.5,37.22l-6.35-6.37v6.79c-32.24-27.24-65.45-45.67-96.48-53.48-44.48-11.2-86.16-1.25-120.52,28.77-32.03,27.98-46.51,66.14-39.71,104.67,7.11,40.31,36.24,73.99,77.93,90.12,20.05,7.75,40.92,13.29,61.1,18.64,17.73,4.7,34.82,9.23,51.31,15.1-1.43.6-2.74,1.18-3.89,1.74-92.31,44.91-166.23,88.56-232.63,137.38-.58.43-1.42,1.04-2.47,1.8-5.38,3.92-15.41,11.2-24.38,18.29-15.92,12.57-23.44,19.7-23.69,30.66-.13,4.9,1.15,9,6.24,19.96,2.27,4.89,5.09,10.62,6.42,13.03,18.58,33.89,53.21,67.98,94.47,93.52-25.96,63.99-40.29,132.07-42.63,202.62-2.48,75.1,8.69,149.81,33.21,222.07,25.06,73.86,62.29,141.54,110.66,201.19,47.28,58.3,103.76,107.18,167.86,145.29,64.45,38.31,134.44,64.43,208.04,77.63,36.47,6.54,73.33,9.81,110.36,9.81,40.11,0,80.41-3.84,120.58-11.51,172.86-33.02,325.7-142.83,419.33-301.29,44.25-74.89,73.51-159,84.61-243.24,11.81-89.61,3.85-177.9-23.66-262.43-10.46-32.13-24.04-64.36-40.57-96.37,4.47,2.32,9.47,3.67,14.89,3.94.7.03,1.39.05,2.08.05,8.61,0,16.63-2.58,23.17-4.69,11.56-3.73,50.37-18.12,64.57-46.8,5.91-11.93,6.71-24.8,2.33-37.2v-.05ZM868.43,1579.82h0ZM588.46,1401.97h0ZM588.39,1401.79h0ZM588.39,1401.79h0ZM588.96,1400.49h0ZM967.98,1354.52h0ZM765.49,1252.67h0s0-.02.01-.02h0s0,.02-.01.02ZM852.02,1113.54c-3.26,2.7-10.78,7.8-13.34,10.65h0c2.57-2.86,10.08-7.96,13.33-10.66h.01ZM765.22,1253.07h0c-.09.15-.19.29-.28.44h0c.1-.15.19-.29.29-.44h0ZM535.81,952.07h-.04s.02-.02.04-.03c4.95-1.56,10.09-3.52,15.3-5.81v.03c-5.21,2.29-10.36,4.25-15.3,5.81ZM535.64,772.95h0ZM563.28,1467.64h0ZM592.33,1393.21h.03c.99,1.73,1.92,3.58,2.8,5.5h-.04c-.88-1.93-1.8-3.77-2.79-5.5h0ZM1182.28,1372.25h0c-.66.02-1.3.04-1.93.05h0c.63,0,1.26-.02,1.93-.05ZM597.06,1403.18h.04c.39.97.77,1.93,1.15,2.9l-.05-.04c-.37-.96-.75-1.91-1.14-2.86ZM1161.97,1373.35h0ZM1179.22,1372.31h0ZM1182.28,1372.25h.04-.04ZM436.11,426.64h0ZM297.5,1362.11v-.02l8.13-10.84h0l-8.14,10.85h0ZM527.2,1490.51h0ZM652.88,1581.49h0c4.99.79,10.08,1.41,15.29,1.85h-.02c-5.21-.43-10.29-1.05-15.27-1.84h0ZM757.27,1575.87c-.41-.44-.85-.9-1.3-1.37h0c.46.47.89.93,1.3,1.37h0ZM1280.59,678.31c3.36-2.11,6.62-4.3,9.79-6.55-2.18,4.35-4.09,9.42-4.56,15.27-1.72-2.91-3.47-5.82-5.24-8.72h.01Z"/>
    <path class="st5" d="M124.76,814.82c13.02-21.98-1.17-42.13-8.79-52.95-.65-.92-1.29-1.83-1.91-2.73-23.29-33.86-48.99-49.59-74.32-45.48l-39.74,6.46,11.22,10.68c-2.28,2.65-4.24,5.47-5.74,8.37-5.3,10.23-11.3,30.82,8.06,53.74,7.91,9.37,19.25,18.11,33.7,26l.8.44c8.27,4.51,19.6,10.69,31.7,13.32,3.87.84,7.61,1.25,11.21,1.25,14.44,0,26.43-6.65,33.81-19.1h0Z"/>
  </g>
  <g>
    <path class="st3" d="M424.79,301.91l3.28,3.29c4.5-36.09,19.82-72.8,49.69-94.85,37.87-27.95,115.72-59.9,160.87-76.98,5.82-2.2,27.61-6.63,28.92-12.68,1.15-5.29-.51-13.11.26-19.25,9.41-74.88,97.58-96.48,154.95-57.92,69.15,46.48,84.08,176.63,89.28,252.63,1.95,28.44-3.53,63.1,15.3,86.24,132.48,15.77,260.91,67.57,363.76,152.47,5.66,4.67,39.89,34.66,41.39,38.01,1.75,3.91-4.39,15.53-6.59,19.83-14.99,29.41-35.61,49.91-63.1,67.39-2.66,1.69-16.03,6.13-15.51,10.85s23.99,39.65,28.44,47.76c116.34,212.24,94.3,458.98-49.15,651.78-278.25,373.98-841.81,304.27-1031.7-117.67-68.72-152.71-73.29-326.22-6.52-480.62-1.53-6.01-20.71-14.36-26.42-18.31-28-19.37-61.97-50.64-77.12-81.45-3.72-7.57-10.16-16-3.67-22.9,8.44-8.97,30.45-23.19,41.51-31.16,67.67-48.81,140.19-90.22,215.17-126.75,12.14-5.91,45.93-17.04,50.61-28.68l-9.26-8.87c-60.63-36.66-175.37-28.24-202.96-104.28-21.07-58.06,30.1-116.68,87.55-122.18,63.26-6.06,116.11,42.71,158.56,82.53-1.17-3.6,2.19-4.05,2.46-4.92.2-.66.07-2.38,0-3.3h0ZM898.85,382.85c.08-.15,2.27.53,3.25-1.21,3.09-5.52,2.26-70.85,1.77-82.28-3.24-75.41-24.59-222.92-103.54-256.54-35.06-14.93-78.19-9.93-105.54,17.87-9.05,9.2-20.57,34.54-19.05,47.18.57,4.74,3.64,1.51,5.07,2.44.21.14-.39,2.47.24,3,1.45,1.21,15.54-8.63,19.61-10.4,44.32-19.23,81.65-3.3,107.7,34.29,29.03,41.88,45.11,132.85,50.71,183.84,2.14,19.5,1.75,39.52,3.39,59.08.47,1.83,3.18.88,3.35,1.08.53.62-.12,3.88,2.64,4.74,3.06.95,26.85,2.69,29.5,1.98,2.01-.54.42-4.15.9-5.06h0ZM847.65,379.54c2.5.57,3.92.8,6.47-.15,3.18-3.43-8.21-81.63-10.01-92.94-10.28-64.61-33.67-205.18-128.9-178.92-12.18,3.36-36.96,16.59-34.05,31.28,4.73,23.86,52.5,65.46,69.88,85.44,36.12,41.52,70.18,89.83,87.25,142.34.76,2.34,2.51,10.8,6.05,9.65.13.53-.15,1.17,0,1.65.32,1,.98,1.16,1.65,1.65.28.21,1.06-.13,1.65,0h.01,0ZM672.56,151.6c-.42-.65.35-3.64,0-4.96-52.88,13.81-103.93,33.76-151.41,60.83-31.03,17.69-53.04,32.58-66.25,67.54-6.55,17.34-8,34.59-12.02,52.58l5.06,4.05c-1.61,10.98-3.31,22.06-4.96,33.04-1.74,2.34-5.4,5.16-6.24,7.81-3.46,11.05-4.43,29.32-7.79,41.76-1.62,5.98-3.75,13.19-5.75,19.03-2.33,6.8-13.89,25.43-9.84,31.13,4.4,6.2,8.91-.44,13.87-2.33,86-32.67,173.01-55.12,264.13-67.88,17.4-2.44,40.84-8.59,58.04-6.41,3,.38,2.68-.56,2.45,3.3-14.72,2.13-30.73,1.5-45.3,3.44-183.85,24.38-391.49,126.8-546.58,226.46-7.16,4.6-55.08,36.26-56.52,39.39-2.27,4.94,11.49,22.92,15.11,27.87,17.89,24.45,41.85,45.15,69.64,57.55,13.98,6.24,15.79,6.9,30.12,7.04,44.04.43,63.36,6.13,107.34-10.76,35.63-13.69,49.14-30.26,77.66-50.35,167.06-117.73,380.24-179.82,578.57-102.03,53.25,20.89,91.25,54.05,149.3,63.78,57.17,9.58,82.73,3.34,132.71-21.21,1.04-.51,4.04.55,7.49-1.56,9.04-5.53,32.7-36.61,35.85-46.84.76-2.45,1.83-3.04.49-6.04-.79-1.75-13.16-11.81-15.88-13.97-77.04-61.29-179.85-116.91-274.09-145.46-74.8-22.66-152.81-32.87-231.21-30.6-2.68-2.04.03-2.99,2.44-3.3,10.09-1.29,30.02,2.29,37.96.12,1.95-.53.47-4.61.89-5.07,1.56-1.7,7.6,5.06,2.76-10.2-13.21-41.64-38.17-78.1-67.18-108.73-5.89-6.22-10.73-13.51-16.52-19.82.32-4.47-2.61-7.48-5-10.7-20.35-27.42-44.29-46.46-65.3-76.82-1.09-1.58-3.91-1.5-4.03-1.68h-.01,0ZM418.18,391.1c8.92-1.58,5.7-10.61,6.82-17.14,1.63-9.55,6.51-24.5,6.19-33.34-.12-3.37-4.29-8.66-6.43-11.43-35.93-46.34-113.26-105.39-175.01-89.2-42.69,11.2-82.14,57.84-66.09,103.2,1.77.68,3.1-1.64,3.29-1.66,1.04-.08,2.27-.1,3.3,0,.18.02.96,2.44,3.29,1.65,1.47-23.29,16.6-44.27,39.89-50.14,55.08-13.88,110.61,32.97,148.45,67.46,6.66,6.07,26.76,29.43,33.01,30.58.81.15,2.48.15,3.3,0v.02h-.01ZM400.01,447.26c6.12-.83,10.43-13.67,12.45-19.76,5.56-16.77,4.56-15.24-6.65-28.17-30.6-35.31-106.87-102.91-155.35-100.82-40.87,1.76-62.59,50.09-37.97,82.72,14.76,19.56,78.29,30.23,103.64,38.41,24.38,7.86,54.84,24.46,77.16,30.21,3.18.82,5.83,2.36,5.07-2.6.54-.06,1.11.07,1.65,0h0ZM476,666.95c-.35.39-3.73-.26-4.69,2.69-2.78,8.54-4.3,21.61-6.96,31.09-1.21,4.33-7.18,8.41.09,9.17-3.21,9.57-1.72,4.15-6.61,11.56-.67,1.01-1,2.28-1.65,3.3-7.84,2.86-11.75,13.46-17.32,19.84-32.28,36.94-81.05,55.63-111.51,92.48-.61.74-6.32.38-4.95,4.93,9.43,6.14,19.47-.98,29.07-3.1,19.42-4.29,49.9-11.51,69.11-8.34,23.48,3.88-9.47,37.51-18.04,44.54-5.23,4.29-28.02,15.28-28.53,16.86-2.06,6.29,8.38,12.48,6.19,14.48-8.23-5.55-16.22,7.82-16.51,14.87-.08,1.91,1.39,3.58,1.65,4.96.37,1.96.92,4.67.84,6.57-6.84-7.45-23.69-.81-19.4,9.45,7.19,17.24,24.33,34.2,35.76,48.54,4.81,6.03,7.89,13.6,13.34,19.7,28.6,31.97,66.11,15.75,101.99,9.45,30.98-5.44,67.76-10.52,99.53-9.46,38.45,1.29,92.51,9.52,129.4-1.12,14.27-4.12,29.68-31.32,26.37-45.63-.66-2.87-3.38-4.88-4.12-7.44-2.24-7.69-3.92-22.2-.9-29.64,6.72-16.56,51.57-24.64,55.86-38.34,3.44-11-13.1-26.32-10.71-45.36,2.21-17.52,21.54-31.48,21.46-44.74-.05-8.28-7.67-14.4-11.39-21.77-5.43-10.75-7.01-17.98-4.54-30.35,2.89-14.51,14.41-16.61,9.71-34.29-3.38-12.72-8.43-13.62-7.1-30.83,1.24-16.04,16.9-33.1,16.62-41.26-.53-15.82-28.8-26.51-24.82-49.5.72-4.15,6.59-10.61,6.6-13.25,0-.36-4.8-1.87-3.59-5.55-12.45.86-26.37.34-38.6,1.37-72.53,6.13-159.16,30.43-225.49,60.26-17.52,7.88-44.15,20.49-56.15,33.87h-.01,0ZM993,989.05c.68-.29,1.16-1.4,1.65-1.65.91-.47,4.47.52,4.95-.01,1.44-1.61-5.93-23.17-6.4-27.45-2.38-21.72,7.83-38.89,6.49-54.3-.67-7.69-11.61-21.25-11.82-31.34-.26-12.52,11.26-29.7,10.16-41.36-1.34-14.24-15.37-34.33-15.08-47.89.56-26.28,28-37.31,16.29-69.01-5.66-15.33-11.59-17.06-9.63-36.79,2.33-23.53,31.15-44.38,4.24-68.49-7.99-7.16-50.69-21.24-62.97-24.57-35.89-9.75-73.42-13.53-110.54-15.07-10.21,1.1-21.95,17.63-20.53,27.16,1.52,10.28,25.41,25.47,24.77,44.67-.4,12.06-17.98,25.98-18.29,44.75-.15,8.97,8.03,15.85,9.6,23.4,4.02,19.42-8.33,26.2-12.06,41.74-3.69,15.37,17.35,29.76,17.38,47.08.03,17.82-22.29,30.66-22.6,48.19-.22,12.36,16.99,28.37,12.35,43.98-4.93,16.57-59.99,22.12-59.21,48.17.37,12.44,8.87,20.1,6.3,37.66-5.2,35.49-31.07,39.26-61.48,40.93-33.36,1.83-72.64-5.49-104.17-1.76-14.81,1.75-17.39,22.55-23.64,33.61,4.12,11.58,22.67,23.9,24.39,35.08,3.18,20.72-17.36,34-12.32,53.63,3.24,12.59,21.7,26.91,26.02,38.39,2.63,6.99-.41,11.81,8.01,16.76,26.53,15.59,75.99-14.48,98.82-29.75,76.42-51.09,130.72-122.23,221.51-158.4,18.77-7.48,41.48-10.38,57.79-17.37h.02ZM1275.46,1231.86c2.24-.64,3.55-2.53,4.58-4.49,3.76-7.15,8.14-20.45,11.08-28.58,57.89-160.31,47.51-337.15-41.8-483.4-5.2-8.52-25.8-41.4-32.4-45.22s-24.83,1.3-33.15,1.72c-30.8,1.55-65.86-7.47-95.88-3.38-5.4.74-5.62,3.79-8.51,4.7-20.62,6.52-53.47-1.96-73.95,2.03-1.18.23-10.09,6.37-10.41,6.91-3.77,6.41,14.64,33.26,14.62,46.74-.02,20.57-17.04,37.12-18.36,51.12-1.92,20.31,11.83,38.16,11.76,57.9-.04,10.91-9.74,28.38-9.86,34.65-.13,6.49,10.48,20.32,11.44,28.07,2.3,18.54-8.48,36.7-6.62,56.19.65,6.85,3.59,11.39,5.54,17.57.84,2.64.64,8.74,1.24,9.55.56.75,2.63-.11,3.09.15,2.41,1.4,4.22,3.55,6.61,4.96,7.3,4.29,13.09,3.41,21.4,5.86,54.25,15.99,68.64,86.98,72.74,135.38,1.42,16.78-4.47,23.61,9.06,37.19,38.33,38.46,87.31,17.05,128.6,44.83,6.32,4.25,19.09,18.6,24.23,19.54,1,.18,4.13.24,4.96,0h0ZM362.02,894.9c-.53-.61.14-3.81-2.65-4.73-6.27-2.05-21.89.48-30.82-1.97-1.36-.37-1.17-2.66-2.5-3.07-30.17-9.3-17.68,8.19-13.56,27.09-.45,2.06-4.83-.06-5.55-.69-1.22-1.09-5.4-22.35-5.84-25.91-.5-4.06-2.24-26.85-1.53-29.19.86-2.82,17.1-23.07,20.36-25.9,28.63-24.93,66.54-43.48,95.81-71.02,5.24-4.93,29.2-29.89,28.48-35.24-1.21-8.94-7.26-4.36-10.14-4.91-6.84-1.29-8.13-4.58-17.62-2.06-6.72,1.79-9.56,8.22-14.42,10.35-8.21,3.59-22.66,4.58-31.74,7.9-13.63,5-28.6,15.87-42.99,21.43-34.06,13.14-71.77,18.76-107.99,12.78-7.31,1.36-23.64,44.14-26.59,52.49-51.3,145.28-35.87,308.43,34.58,444.38,3.07,5.93,7.37,14.96,10.92,20.1.64.93,4.14,5.12,5.59,4.53,23.26-27.22,50.83-42.29,87.36-42.26,13.71.01,22.03,3.69,33.7,5.58,15.87,2.57,38.47-7.86,50.03-18.55,16.65-15.4,24.62-29.71,47.98-39.57,5.29-2.23,11.7-1.52,17.39-4.16,4.51-2.09,3.44-4.5,3.97-5.04.32-.32,2.8-.2,4.05-1.67,2.76-3.22,4.72-9.67-.75-8.24.14-1.06-.1-2.22,0-3.3,8.24-4.39,8.05-15.13,12.01-23.51,11.6-24.58,27.62-43.25,52.94-54.43,7.64-3.37,18.39-5,24.83-7.9,1.72-.77,1.27-1.73,1.07-3.36-1.07-8.57-16.22-17.44-18.06-29.01-2.58-16.25,7.39-22.49,8.15-33.76.11-1.64-.01-3.32,0-4.95-1.92-.01-3.87-.11-5.81-.08-26.38.47-58.67,5.88-84.5,11.36-27.32,5.8-50.2,12.29-77.04-3.35-14.09-8.21-14.82-17.99-23.59-29.27-7-9.02-16.11-16.74-22.83-26.72-3.79-5.62-10.51-21.51-13.44-24.6-1.64-1.72-4.49-1.2-5.35-2.13s.02-3.74-.5-4.25c-.96-.94-12.31,1.47-18.09-7.61-1.52-2.38-1.29-5.09-2.56-7.43-.29-.54-9.6-5.87-1.52-8.32,4.76,6.76,9.29,16.65,18.64,17.86,12.85,1.67,31.93-21.56,33.36-33.81.69-5.92-2.78-3.35-3.25-3.89h.01ZM943.45,1015.48c-31.77,4.34-92.22,49.79-119.68,71.1-57.09,44.29-108.7,103.17-181.79,120.48l-27.23.03c-1.16-.42-6.02-2.1-6.6-1.64-.02,1.09-.04,2.2-.01,3.29.13,4.82,2.81,7.23,3.21,10.83.73,6.52-1.32,17.64.33,22.82.97,3.06,3.95,2.09,4.72,2.68s1.04.91,1.65,1.65c.38.45-1.06,2.92.96,3.39,6.02,1.4,34.95.34,42.35-.55,9.83-1.18,18.97-5.74,28.6-7.74l33.82-15.73c.21,2.83-2.62,4-4.42,5.49-20.23,16.63-52.86,29-79.02,29.99-6.66.25-17.45-2.23-21.46-1.67-1.88.26-.32,4.18-.83,5-.09.15-2.22-.42-2.87.33-2.11,2.41,2.87,32.91,5.65,37.29,1.76,2.76,3.57,1.78,3.82,2.03.7.66-.7,4.11,4.08,4.99,6.82,1.25,28.67.61,36.36-.06,14.11-1.21,28.56-7.69,42.14-11.53l-10.41,8.57c-21.24,10.74-45.1,14.51-68.86,12.91-.73,2.05,1.62,3.11,1.65,3.29.8,6.2.67,28.87,7.69,31.12,39.46,5.6,77.7-1.67,112.34-20.93,29.48-16.4,75.66-57.55,93.04-86.18l69.84-54.87c44.08-31.19,123.46-74.32,177.51-49.66,2.55,1.16,4.78,8.52,8.66,2.88-4.78-16.11,5.21-23.53-12.07-32.45-32.23-16.62-77.35-15.94-111.81-7.15-4.3,1.1-20.49,5.76-21.46,9.1-25.04,3.4-52.1,19.69-74.33,31.38.02-.11-1.73-.7-1.37-1.28,3.63-5.92,43.95-31.25,52.54-35.92,45.65-24.81,106.03-37.33,154.9-14.49,1.34.63,4.83,7.07,8.65,3.78,1.33-1.15-9.11-32.2-10.11-33.64-7.71-11.2-46.69-18.73-60.01-19.27-18.51-.74-37.2,3.94-55.41,6.67-.12.02-.93-1.24-2.11-1.1-10.86,1.24-18.75,5.97-29.28,7.69,5.64-5.64,15.44-9.28,22.82-12.74,3.2-1.5,4.52.66,3.6-5.42,43.75-11.43,58.65-17.79,103.63-2.04,10.15,3.55-6.94-14.62-8.61-16.17-22.1-20.58-48.44-22.74-77.19-17.64-12.75,2.26-26.13,9.5-37.65,11.08h.03,0ZM565.19,1116.23c-7.5,11.69-15.05,22.93-19.82,37.99-1.73-.93-6.32,5.83-6.46,6.25-1.36,4.06-3.98,14.97-4.91,19.54-.95,4.65-2.06,24.01-3.52,25.41-1.87,1.79-3.36.13-3.34-2.5.06-6.69,1.84-13.92,1.83-21.65,0-3.02-1.76-5.29-1.77-5.58-.36-11.86,6.19-31.45,11.27-42.42,3.63-7.83,9.38-13.93,11.85-21.99-1.11-1.16-12.42,8.56-13.99,9.95-34.17,30.37-39.19,73.75-37.21,117.23-5-.92-3.18,2.53-3.3,5.7s-.25,6.91,0,10.07c.39,5.07-.81,4.25,4.96,4.05.12,1.08-.14,2.23,0,3.3-5.11-.73-3.26,1.86-2.59,5.06,8.72,41.7,17.78,77.93,34.8,117.17,24.59,56.7,84.89,151.7,137.38,183.92,1.06.65,1.36,3.11,2.13,3.55,2.63,1.52,9.58-1.55,6.28-6.2-9.26-14.57-23.53-27.37-31.79-42.56-1.12-2.06-2.47-5.55,1.6-4.91,17,19.8,33.77,45.08,53.68,61.95,6.67,5.65,21.24,17.1,29.76,9.06,4.8-4.54-6.7-11.9-9.87-15.74-66.01-79.81-108.45-204.62-118.96-307.2-1.32-12.84.07-29.84-1.75-41.19-1.65-10.29-8.68-11.28-6.52-28.99.18-1.46,3.58-4.3,3.25-8.99-.41-5.82-11.27-21.5-17.68-15.33-5.17,4.98-11.42,45.09-12,54.04-5.25-1.28-4.92,6.41,0,4.96-.39,5.99.22,12.16,0,18.17l-6.6,4.95c-.37-12.36.48-24.86,0-37.23-.13-3.18,1.7-6.63-3.3-5.71.64-11.61,2.33-21.85,5.79-33.03,1.76-5.7,10.17-21.9,10.37-24.23s-4.17-11.1-4.57-16.26c-.45-5.78.43-13.31,1.63-18.98,1.83-8.61,6.6-9.93,8.25-18.16-1.6-1.75-11.28,8.38-12.49,9.83-2.54,3.03-1.85,5.88-2.37,6.68l-.02.02h0ZM1011.17,1197.17l-1.64-16.51c37.4,10.28,73.65,15.25,112.31,8.24.78-3.18-1.17-3.18-2.78-4.64-8.6-7.82-17.12-16.59-27.48-22.07-39.18-20.72-84.49-6.25-121.57,12.02-1.57,3.69,2.77,7.77,3.18,9.75,1.65,7.99,6.25,52.3,1.76,55.44-5.86,4.1-31.01-8.5-37.9-11.87-5.73-2.8-22.81-14.76-27.07-13.6-2.77.75-36.21,29.24-40.87,33.6-2.65,2.48-15.78,15.03-16.25,16.88-.37,1.46,5.7,24.16,6.34,29.42.74,6.13,1.94,20.48,1.83,26.41-.21,11.63-8.15,6.84-16.27,4.55-12.07-3.4-23.33-11.58-35.09-13.64-.27-.05-1.3-2.56-3.18-.95-20.54,19.49-44.11,35.48-69.48,48.04-2.96,2.47-1.11,6.41-1.67,9.07-2.81,13.47-7.12,26.93-15.85,37.89-2.05.47-7.34-3.77-9.45-5.17-2.73-1.81-21.83-16.65-22.61-17.86-1.22-1.9,0-7.78-6.13-9.56-9.93-2.88-28.67,1.75-40.11-1.99.4,10.29,5.4,17.89,11.6,25.54,6.68,8.25,19.28,21.51,29.68,24,2.13,7.72,19.11,16.72,26.39,20.68,6.62,3.6,32.01,16.96,38.05,13.22,1.84-1.14,17.54-32,19.57-36.61,8.96-20.39,17.12-44.49,18.41-66.67,2.84-2.86,20.48,11.32,25.28,13.54,13.13,6.07,33.7,10.36,48.15,11.31,6.51.43,36.43.91,40.51-.92,6.93-3.12,10.95-27.2,11.56-34.69,2.06-25.16-2.42-50.25-4.92-75.12,8.1.99,14.96,5.67,22.76,7.78,29.7,8.06,60.66,7.33,91.21,7.08.72-11.37,1.97-22.47,1.72-33.95-.38-17.56-1.3-33.77-9.99-48.65h0ZM935.19,1305.36c.52,13.13,0,26.48,0,39.64,0,6.48-5.69,27.74-8.5,34.45-3.28,7.83-8.98,17.78-17.88,20.11-12.59,3.29-59.01,1.1-73.14-1.29-5.44-.92-30.7-9.77-32.26-9.14-4.11,1.67-3.55,10.45-4.82,14.19-4.16,12.24-32.96,76.71-42.99,79.36-3.58.95-26.31-5.84-31.49-7.54-23.59-7.72-32.64-18.11-52.35-28.59-1.98-1.05-3.1-2.28-5.81-1.61l27.31,56.09c5.5,6.82,30.02,13.91,32.03,16.71,2.14,2.97-7.01,13.28-4.85,18.03,7.79.01,14.45-.89,21.87,2.09,17.97,7.22,36.26,46.2,52.03,13.17,10.29-21.56,14.23-54.57,47.12-49.54,10.48,1.6,45.91,22.12,52.41,18.7,5.92-3.12,12.5-37.32,15.72-45.5,17.64-44.77,53.69-9.73,86.47-11.81,9.79-24.1-1.56-70.04,34.08-74.11,12.04-1.38,49.91,6.87,56.33,1.82,6.25-4.92-1.9-46.02,3.13-59.64,10.15-27.47,46.83-18.03,69.28-21.57,4.64-.73,8.69-3.48,8.7-8.65.05-22.82-19.52-43.75-4.78-66.71,11.48-17.88,49.93-14.75,51.54-19.51,1.71-5.08-2.84-4.42-6.29-5.23-13.19-3.1-34.15-5.57-47.43-5.52-5.97.02-19.62,6.07-27.15,7.54-30.27,5.91-60.22,3.76-90.92,4.05,3.53,22.03,1.47,44.86.01,66.91-.3,4.55,1.34,19.54-1.56,21.56-35.68,2.25-71.28.39-106.64-2.59-2.47.62.8,3.55.82,4.14h.01ZM477.65,1297.93c-3.76-1.68-14.33-8.27-18.01-10.91-11.24-8.09-6.89-8.78.14-19.34,4.11-6.17,22.54-27.06,23.71-31,.8-2.69-.89-3.45-.89-3.99v-27.25c-3.08-.43-4.87.02-7.52,1.57-10.08,5.89-38.26,49.26-44.55,61.16-3.3,6.25-10.59,20.13-11.74,26.43-.72,3.96,12.16,15.96,15.86,19.07,3.5,2.94,6.63,2.93,8.3,4.09.15.1-.43,2.4,1.12,3.36,8.79,5.43,19.53,7.99,28.74,12.52-3.62,13.25-28.12,67.1-24.69,77.16,3.36,9.87,69.51,38.22,81.65,44.06-2.76,14.78-5.58,63.26,3.29,74.26,3.5,4.34,27.25,17.22,33.75,20.76,34.1,18.59,66.31,31.33,105.74,33.82.77-3.44-1.81-3.75-3.76-5.31-9.77-7.8-34.72-29.67-43.25-34.38-10.48-5.78-28.1-8.78-40.47-14.04-8.43-3.59-16.45-8.33-24.48-12.67-2.78-16.89,2.72-33.13,2.55-49.64l-31.85-57.34c-4.25-5.73-12.55-2.61-19.35-3.78-7.48-1.28-17.61-4.15-25.13-6.26-1.9-.53-3.19-.27-4-2.62-3.23-9.32,18.19-44.88,21.41-55.92-3.79-6.44-8.85-36.83-12.09-40.11-2.19-2.22-12.37-2.75-14.48-3.69h0ZM1260.59,1256.64c1.68-3.86,4.65-3.46,2.08-9.45-1.8-4.21-18.6-22.95-22.79-23.67-.71-.12-8.61,6.14-12.37,7.48-9.16,3.26-45.43,7.97-49.16,14.41-5.02,8.66,10.91,46.85,7.53,62.88-.95,4.49-4.85,7.74-6.23,12.76-8.04,2.6-15.51,7.08-24.13,8.08-10.48,1.22-37.34-2.4-44.54,3.37-11.13,8.92,4.94,50.45-8.26,69.38-16.64,23.86-61.13-2.37-75,7.59-12.66,9.09-1.17,53.63-20.93,68.26-22.29,16.51-56.93-12.82-73.24-5.5-10.11,4.54-12.04,50.41-25.61,61.92-7.21,6.11-16.78,5.82-25.7,4.19-12.92-2.36-38.95-19.01-48.56-17.45-12.44,2.02-21.27,42.93-30.62,53.27-2.51,2.78-19.9,9.59-10.5,12.55,3.04.96,24.87-.8,29.45-1.4,4.19-.55,11.76-1.41,15.29-2.88,7.89-3.31,11.63-19.48,17.72-26.87,11.5-13.95,21.42-12.6,37.56-7.75,12.32,3.71,26.79,15.13,39.34,11.96,1.52-.38,9.2-4.2,9.98-5.3,5.42-7.68,7.76-32.46,13.54-43.86,16.61-32.8,53.1-3.99,76.86-3.23,2.21.07,2.58.28,4.54-1.19,12.77-9.57,2.9-60.07,23.25-70.96,4.39-2.35,6.46-1.37,10.53-1.86,6.17-.75,2.2-2.51,3.3-3.3.53-.39,12.69-.4,13.21,0,.26.2-.17,2.35.01,3.29,1.77.67,3.07-1.61,3.29-1.64,7.31-.96,15.72,2.51,23.12,3.3,2.55.27,1.91.02,3.3,0,2.56-.03,5.99.4,8.26,0,8.44-1.5,5.66-5.93,6.61-11.56,1.56-9.28.81-12.33,0-21.47,2.87-4.62,2.7-14.79,0-19.82.3-2-.47-4.98,0-6.61.07-.23,1.32-.78,1.65-1.65,7.33-18.93,17.29-20.37,36.34-21.47,18.94-1.1,41.66,8.09,39.64-18.17,6.66-.87,4.68-8.53,9.24-13.09,1.22-1.22,3.92-2.49,5.62-3.42.87-.47,3.15,1.15,5.07-1.05,5.32-6.07,17.03-30.02,21.36-38.59,3.51-6.96,6.79-14.32,9.91-21.47h.04ZM416.53,1251.68c-3.95.45-12.01,6.47-17.28,8.32-6.46,2.26-22.99,3.82-26.61,6.43-5.81,4.18-9.86,34.23-13.31,34.94l-40.26-10.06c.05-10.96,10.21-18.99,9.92-29.71-8.84.34-24.86-.07-31.98,5.19-4.11,3.04-18.78,19.84-17.36,25,2.16,7.82,30.22,21.79,37.79,28.43,25.08,22,9.45,43.24-6.69,64.44,0,5.21,57.75,60.58,66.11,67.75,10.98,9.41,41.95,35.43,53.31,40.84,2,.95,3.91,1.57,6.16,1.25.45-3.5,8.91-23.96,10-24.71s3.48.17,4.84.8c2.78,1.29,25.85,19.75,26.2,21.68.7,3.75-10.32,20.63-7.7,25.07,2.67,4.54,37.94,16.59,43.51,23.4,2.68.33,2.73.21,2.41-2.39-1.02-8.37-5.68-17.25-6.54-26.52-1.34-14.51,1.17-30.48-.3-45.13-12.46-4.26-77.62-37.15-80.35-45.99-6.32-20.48,20.28-61.15,17.85-78.15-.26-1.82-.12-2.61-1.63-4.08-4.76-4.63-17.08-9.33-24.01-15.7-3.14-2.89-18.35-19.89-18.75-22.72,3.41-7,4.27-15.06,6.92-22.21,1.5-4.03,12.23-24.63,11.03-26.12-1.08.04-2.22-.13-3.29,0v-.05h0ZM295.95,1364c.63,1.03-1.44,8,3.33,4.16,4.97-4,12.5-17.22,11.53-23.98-1.19-8.34-28.76-22.41-36.36-28.89-3.35-2.85-7.83-7.44-10.66-10.84-2.36-2.83-2.15-9.98-8.79-6.15-.29.17-3.27,5.25-3.34,5.72-.51,3.34,32.76,49.91,37.7,55.83,2.64,3.16,6.39,3.81,6.59,4.14h0ZM1159.83,1373.91c-6.72,2.01-8.76,3.42-9.91,11.56-1.35,9.55,1.07,20.2,1.66,29.72l3.33-.78,34.64-41.35c.87-4.78-4.54-.9-7.41-.79-8.53.32-13.96-.86-22.31,1.64h0ZM1110.28,1454.85c-.56-2.62-21.78-3.25-25.62-4.93-21.58-4.48-19.03,18.95-21.01,33.45-.38,2.81-2.45,5.22-2.85,7.08-.27,1.25,2.98.49,3.23.73.39.4-1.24,4.13,2.36,3.26,3.73-.9,39.54-29.55,42.32-33.75,1.2-1.81,2.05-3.64,1.57-5.85h0ZM964.92,1545.7c.31.93-.97,3.03,1.02,3.43,2.86.08,5.52-.72,8.16-1.7,6.79-2.5,30.84-14.34,36.08-18.46,2.26-1.78,2.24-2,2.64-4.75.23-1.57-.11-3.35.01-4.96-8.81,2.28-26.12-8.3-33.5-6.36-8.52,2.24-10.27,24.32-15.68,30.7-.28,1.41,1.17,1.78,1.27,2.09h0ZM760.1,1585.34c.2-.15,1.06-3.88.74-4.97-.61-2.11-19.96-20.82-23.06-23.08-12.89-9.4-5.94,2.66-.75,9.01,2.64,3.23,12.77,14.8,15.3,16.89,1.54,1.27,6.6,3.04,7.78,2.16h-.01ZM893.9,1570.47l4.92-3.27c-10.05-6.3-18.97-14.62-29.53-4-3.42,3.44-3.32,6.11-5.24,9.3-1,1.65-8.52,3.22.11,4.58.52.08,1.11-.02,1.65,0-.66,5.66,1.72,2.39,4.61,2.15,4.37-.37,20.72-1.52,22.76-3.74.81-.89.46-2.33.71-3.36.11-.44.05-1.18,0-1.65h.01Z"/>
    <path class="st14" d="M1369.03,627.87c10.23-.3,22.08,8.87,25.43,18.35,10.49,29.69-31.89,51.11-54.18,58.3-12.23,3.94-25.27,8.04-32.42-6.36-4.63-9.31-1.65-14.44,3.26-22.8,7.32-12.48,29.07-35.96,41.91-42.33,3.96-1.96,11.82-5.04,16.01-5.16h-.01ZM1378.94,677.93c28.74-27.61-.55-59.38-31.63-35.76-6.91,5.26-33.22,33.66-35.11,40.86-1.79,6.86-.38,17.6,7.36,19.9,12.71,3.77,49.69-15.71,59.37-25.01h.01Z"/>
    <path class="st14" d="M42.8,733.42c22.43-3.64,43.21,20.45,54.64,37.07,6.9,10.04,17.07,22.17,9.97,34.15-11.15,18.79-36.2,4.66-50.75-3.27-17.75-9.68-45.7-29.56-33.57-52.98,3.34-6.45,12.5-13.79,19.72-14.96h0ZM42.78,738.36c-13.49,2.77-21.65,18.79-15.69,31.45,6.83,14.53,47.75,38.8,63.28,39.28,10.55.32,16.25-8.73,13.58-18.68-2.96-11.03-29.69-41.6-40.02-47.53-6.68-3.83-13.36-6.13-21.14-4.53h-.01Z"/>
    <path class="st13" d="M994.65,987.4c-.49.25-.97,1.36-1.65,1.65-2.81-2.03-5.38-1.67-8.57-1.27-54.27,6.79-121.72,51.96-164.69,84.85-43.66,33.41-132.19,124.34-187.58,122.94-21.37-.54-16.89-10.16-24.34-23.68-5.21-9.45-18.46-20.23-21.54-29.67-6.97-21.39,14.37-36.27,11.95-57.37,3.17,6.84-1,9.51,8.27,8.26.65,17.53-16.41,29.07,2.48,42.93,7.75,5.69,32.45,10.84,41.07,6.41,6.21-3.19,15.89-18.68,23.37-24.53,6.24-4.87,18.83-11.89,26.53-13.12,11.75-1.87,30.41,2.19,37.38-8.87,9.23-14.63,9.3-26.13,24.41-40.01,16.08-14.78,31.76-13.8,47.41-23.61,17.04-10.68,13.73-25.46,19.54-41.58,14.24-39.52,58.41-35.9,63.36-85.3,2.82-28.21-4.05-45.45,11.44-72.8,5.17-9.13,14.39-16.12,15.23-27.79.85-11.89-8.52-26.86-8.31-39.64.16-9.86,9.77-23.69,10.06-34.66.33-12.85-9.6-27.19-8.29-39.47,1.19-11.19,10.45-22.23,13.89-32.43,8.17-24.21-16.48-45.02-4.08-69.33,13.75,3.34,27.17,6.7,40.5,11.53,15.2,5.51,36.52,11.61,38.68,30.77,1.78,15.81-15.84,34.32-16.52,52.67-.75,20.32,16.02,32.14,13.17,52.73-2.05,14.8-16.86,26.76-18.09,44.67-1.32,19.15,12.61,34.75,13.33,51.35.6,13.62-9.67,27.55-8.37,44.59.88,11.57,9.09,18.79,10.03,27.98,1.21,11.78-6.12,26.6-6.73,39.58-.74,15.56,4.74,27.21,6.68,42.2l-.02.02h0Z"/>
    <path class="st4" d="M935.19,1305.36c-.02-.58-3.29-3.52-.82-4.14,35.36,2.98,70.96,4.84,106.64,2.59,2.9-2.02,1.26-17.01,1.56-21.56,1.46-22.05,3.52-44.88-.01-66.91,30.7-.3,60.66,1.86,90.92-4.05,7.53-1.47,21.17-7.52,27.15-7.54,13.29-.04,34.25,2.42,47.43,5.52,3.45.81,8,.15,6.29,5.23-1.6,4.76-40.06,1.63-51.54,19.51-14.74,22.96,4.82,43.89,4.78,66.71-.01,5.17-4.06,7.92-8.7,8.65-22.46,3.54-59.14-5.91-69.28,21.57-5.03,13.62,3.12,54.71-3.13,59.64-6.42,5.06-44.28-3.19-56.33-1.82-35.64,4.07-24.28,50.01-34.08,74.11-32.78,2.08-68.83-32.96-86.47,11.81-3.22,8.18-9.8,42.39-15.72,45.5-6.5,3.42-41.94-17.09-52.41-18.7-32.89-5.03-36.83,27.98-47.12,49.54-15.77,33.03-34.05-5.95-52.03-13.17-7.42-2.98-14.08-2.08-21.87-2.09-2.16-4.75,6.98-15.06,4.85-18.03-2.01-2.8-26.53-9.89-32.03-16.71l-27.31-56.09c2.71-.67,3.83.55,5.81,1.61,19.7,10.48,28.76,20.86,52.35,28.59,5.18,1.7,27.9,8.49,31.49,7.54,10.03-2.65,38.83-67.12,42.99-79.36,1.27-3.74.71-12.52,4.82-14.19,1.55-.63,26.82,8.22,32.26,9.14,14.13,2.39,60.55,4.58,73.14,1.29,8.9-2.32,14.6-12.28,17.88-20.11,2.81-6.71,8.5-27.97,8.5-34.45,0-13.16.52-26.51,0-39.64h-.01ZM1123.49,1236.81c-13.85,1.38-26.87,6.63-39.64,11.56v34.69l41.29-4.97c.98-2.16-1.65-4.87-1.65-5.77v-35.51ZM965.75,1377.21c8.11,2.54,29.11-1.88,38.82,0,2.57-13.06,5.79-26.21,4.96-39.65l-39.42,1.88c-2.72,4.67-1.15,10.33-2.27,15.08-1.04,4.43-8.77,20.6-2.09,22.69h0ZM864.17,1438.34c-13.31,1-26.27-2.07-39.45-3.12-1.1,6.35-17.2,29.77-13.28,34.38,1.17,1.37,29.84,6.29,34.99,8.47,1.85.78.45,4.6,4.5,3.21,1.4-5.89,15.79-40.38,13.24-42.93h0Z"/>
    <path class="st6" d="M796.44,523.25c34.79,8.68,73.27,10.07,109.4,16.96,50.33,9.61,85.83,27.34,139.18,24.32,22.9-1.3,47.05-5.31,68.02-14.57,6.95-3.07,15.15-9.71,20.36-11.85.73-.3,2.3.2,3.3,0-4.06,17.07,14.11,54.72,25.58,67.74,24.69,28.02,69.09,33.19,103.26,21.45l-1.65,4.96c-49.97,24.56-75.54,30.79-132.71,21.21-58.05-9.72-96.05-42.89-149.3-63.78-198.33-77.79-411.51-15.7-578.57,102.03v-3.3c1.74-.96,20.25-26.03,24.7-30.64,15.24-15.77,37.8-33.8,55.71-46.7,14.28-10.28,30.51-18.39,43.47-30.03,1.67,0,7.62-1.21,9.91-1.65.76-.15,1.43-.89,1.65-1.65,1.5-.26,3.36.17,4.96,0,20.36-2.21,39.59-11.56,56.16-23.12,3.36-2.34,7.83-8.55,11.56-8.26,11.81.94,16.81-3.29,28.07-5.79,22.75-5.05,48.73-9.73,71.89-12.35,11.79-1.34,28.38,1.59,38.79-4.98,13.84,2.49,39.35-1.72,46.25,0h0Z"/>
    <path class="st11" d="M973.18,1183.96c6.64-3.34,21.76-5.02,28.63-3.37.93.22,7.9,14.08,9.37,16.58,8.69,14.88,9.61,31.09,9.99,48.65.25,11.48-1,22.58-1.72,33.95-30.56.25-61.52.97-91.21-7.08-7.8-2.12-14.66-6.79-22.76-7.78,2.5,24.88,6.98,49.96,4.92,75.12-.61,7.49-4.63,31.57-11.56,34.69-4.08,1.83-34,1.35-40.51.92-14.45-.95-35.02-5.24-48.15-11.31-4.8-2.22-22.44-16.39-25.28-13.54-1.29,22.18-9.45,46.28-18.41,66.67-2.03,4.61-17.72,35.47-19.57,36.61-6.03,3.74-31.43-9.62-38.05-13.22-7.29-3.96-24.26-12.96-26.39-20.68-1.11-4.02-7.8-33.39-6.58-34.66.45-.47,9.85.09,11.54-3.34.78,1.21,19.88,16.06,22.61,17.86,2.1,1.39,7.39,5.63,9.45,5.17,8.73-10.96,13.04-24.42,15.85-37.89,28.4-9.04,58.74-30.67,74.33-56.16,11.76,2.06,23.02,10.24,35.09,13.64,8.12,2.29,16.06,7.08,16.27-4.55.11-5.93-1.09-20.28-1.83-26.41-.64-5.26-6.71-27.96-6.34-29.42.47-1.85,13.6-14.4,16.25-16.88,4.66-4.36,38.11-32.85,40.87-33.6,4.26-1.16,21.34,10.81,27.07,13.6,6.89,3.37,32.04,15.96,37.9,11.87,4.48-3.14-.12-47.45-1.76-55.44h-.02,0Z"/>
    <path class="st4" d="M416.53,1251.68c-7.58,16.02-15.93,31.94-19.18,49.6,12.34,16.7,28.57,35.06,48.91,41.25,2.43,17-24.17,57.67-17.85,78.15,2.73,8.84,67.88,41.73,80.35,45.99,1.47,14.65-1.04,30.63.3,45.13.86,9.28,5.52,18.15,6.54,26.52.32,2.61.27,2.73-2.41,2.39-5.56-6.81-40.83-18.86-43.51-23.4-2.62-4.44,8.4-21.32,7.7-25.07-.36-1.93-23.43-20.39-26.2-21.68-1.36-.63-3.72-1.57-4.84-.8s-9.55,21.22-10,24.71c-2.25.32-4.16-.3-6.16-1.25-11.36-5.41-42.33-31.43-53.31-40.84-8.36-7.16-66.11-62.54-66.11-67.75,16.14-21.2,31.77-42.43,6.69-64.44-7.57-6.64-35.63-20.61-37.79-28.43-1.42-5.16,13.25-21.96,17.36-25,7.11-5.25,23.14-4.85,31.98-5.19.29,10.73-9.87,18.76-9.92,29.71l40.26,10.06c3.45-.71,7.5-30.76,13.31-34.94,3.62-2.61,20.15-4.16,26.61-6.43,5.27-1.85,13.33-7.88,17.28-8.32v.03h0ZM395,1393.69c1.46-1.23,8.13-31.95,9.75-36.79-.44-1.53-22.38-18.99-24.57-20.16-1.6-.86-3.1-1.19-4.87-.76l-18.31,36.81,31.51,20.03c1.46.79,5.64,1.57,6.48.86h0Z"/>
    <path class="st9" d="M1179.65,1321.05c-1.59,5.81-1.66,13.71-3.76,20.19-1.37,4.22-3.66,7.64-6.15,11.19-19.05,1.11-29.01,2.55-36.34,21.47l-1.65,1.65c-.47,1.63.3,4.6,0,6.61-1.51,10.04-.84,10.34,0,19.82.81,9.14,1.56,12.19,0,21.47l-6.61,11.56c-2.27.4-5.7-.03-8.26,0l-2.46-1.64-.84,1.64c-7.41-.79-15.81-4.26-23.12-3.3l-3.3-1.65c-.52-.4-12.68-.39-13.21,0-3.51-.39-3.7-.21-3.3,3.3-4.07.49-6.14-.49-10.53,1.86-20.35,10.9-10.49,61.4-23.25,70.96-1.95,1.46-2.32,1.26-4.54,1.19-23.76-.76-60.26-29.57-76.86,3.23-5.77,11.4-8.11,36.18-13.54,43.86-.78,1.1-8.46,4.92-9.98,5.3-12.55,3.16-27.02-8.26-39.34-11.96-16.15-4.86-26.06-6.21-37.56,7.75-6.1,7.39-9.83,23.57-17.72,26.87-3.52,1.48-11.1,2.34-15.29,2.88-4.58.6-26.41,2.35-29.45,1.4-9.39-2.96,8-9.77,10.5-12.55,9.34-10.34,18.18-51.25,30.62-53.27,9.61-1.56,35.64,15.09,48.56,17.45,8.92,1.63,18.49,1.92,25.7-4.19,13.57-11.51,15.5-57.38,25.61-61.92,16.31-7.32,50.94,22.01,73.24,5.5,19.76-14.64,8.27-59.17,20.93-68.26,13.87-9.96,58.36,16.27,75-7.59,13.2-18.93-2.87-60.46,8.26-69.38,7.19-5.76,34.06-2.14,44.54-3.37,8.62-1,16.08-5.48,24.13-8.08h-.03Z"/>
    <path class="st14" d="M476,666.95c12-13.38,38.63-25.99,56.15-33.87,66.34-29.83,152.96-54.13,225.49-60.26,12.23-1.03,26.15-.51,38.6-1.37-1.21,3.68,3.59,5.19,3.59,5.55-.02,2.64-5.89,9.1-6.6,13.25-3.97,22.99,24.29,33.68,24.82,49.5.27,8.16-15.38,25.22-16.62,41.26-1.33,17.21,3.72,18.11,7.1,30.83,4.7,17.69-6.82,19.78-9.71,34.29-2.47,12.37-.9,19.6,4.54,30.35,3.72,7.37,11.34,13.48,11.39,21.77.08,13.27-19.26,27.23-21.46,44.74-2.4,19.04,14.15,34.35,10.71,45.36-4.29,13.71-49.14,21.79-55.86,38.34-3.02,7.45-1.34,21.95.9,29.64.74,2.55,3.46,4.57,4.12,7.44,3.32,14.31-12.09,41.52-26.37,45.63-36.89,10.64-90.95,2.41-129.4,1.12-31.77-1.06-68.55,4.02-99.53,9.46-35.88,6.3-73.39,22.52-101.99-9.45-5.45-6.1-8.54-13.67-13.34-19.7-11.43-14.33-28.57-31.3-35.76-48.54-4.28-10.27,12.57-16.9,19.4-9.45.08-1.91-.47-4.61-.84-6.57,15.32,4.68,23.86,21.64,36.51,32.04,65.26,53.67,146.08,31.62,197.24-28.72,9.25-10.91,14.94-23.14,22.28-34.71.09-.15,2.4.43,3.35-1.12,2.01-3.25,3.85-8.33,4.91-12.1,1.22-.28,3.03.65,4.55-.36,4.32-2.86,19.46-52.06,17.76-60.75-9.23,16.21-19.68,31.55-32.21,45.42,2.02,3.09,9.57-2.92,9.89-2.49,2.06,6.58-3.08,10.07-4.55,14.49-.66,1.96-.04,4.46-.39,5.33-1.36,3.45-2.89,6.86-4.96,9.91-17.59,26.01-54.3,49.45-84.04,58.85-2.14.68-4.99,1.14-3.49-1.84,1.23-2.43,27.17-15.63,32.24-18.97,14.64-9.65,52.18-42.68,58.59-57.86.16-.38,2.42-.82,1.64-3.29-3.61-.51-3.65,0-3.3,3.29-8.2,1.35-9.99,9.24-13.78,12.66-48.84,44.16-150.48,74.75-210.89,41.05-5.84-3.26-19.93-17.1-22.25-17.41-3.45-.46-2.87,4.15-4.7,6.9-1.59,2.4-2.59,4.85-6.06,4.7.28-7.05,8.28-20.43,16.51-14.87,2.2-2-8.25-8.19-6.19-14.48.52-1.57,23.3-12.56,28.53-16.86,8.57-7.03,41.51-40.66,18.04-44.54-19.21-3.18-49.69,4.05-69.11,8.34-9.6,2.12-19.64,9.24-29.07,3.1-1.38-4.55,4.33-4.18,4.95-4.93,30.47-36.85,79.23-55.54,111.51-92.48,5.57-6.38,9.48-16.98,17.32-19.84-35.38,55.22-83.47,70.86-128.84,112.32-.21.19-3.25,5.83.84,4.97,30.34-6.33,73.05-26.07,103.23-11.58.52.25,1.02,1.26,1.65,1.65-.87,3.59.48,7.53-1.27,12.78-4.31,13.01-24.34,32.78-36.22,39.75-3.88,2.28-16.34,6.32-16.94,7.02-3.58,4.23,13.67,20.28,17.26,23.04,44.89,34.5,126.33,10.27,170.96-14.87,34.78-19.59,70.65-48.97,82.72-88.16-6.95-4.45-17.05-8.26-18.3-17.56,17.1,10.33,25.01,12.14,44.6,13.21,1.47.08,4.21,1.7,7.39,1.8,2.1.07,16.29-3.97,14.07.66-3.21,6.7-30.74,9.21-37.88,5.86-4.3,14.88-7.61,30.05-12.13,44.89-3.05,10.02-8.39,19.22-11.09,29.38-20.07,39.69-48.58,77.11-90.26,95.57-48.75,21.59-105.97,17.64-147.62-17.09-7.85-6.55-33-36.46-41.7-35.3-12.69,1.7-.62,16.7,3.04,22.75,8.6,14.2,18.08,22.67,27.83,34.94,3.38,4.25,5.7,11.12,9.19,15.58,27.31,34.79,77.26,11.16,113.42,6.05,15.97-2.26,35.14-1.82,50.11-5.23h16.52c43.41,0,92.17,4.97,134.6-.02,14.4-1.69,21.41-2.22,29.61-14.99,19.27-30.01-9.63-43.22,3.92-67.1,10-17.62,32.07-20.78,47.09-30.54,17.68-11.49,4.72-16.83-.52-31.85-4.9-14.03-4.03-19.42,1.92-32.83,3.66-8.25,15.13-20.05,16.2-26.76,2.43-15.13-16.84-28.15-16.48-47.73.27-15.09,13.26-27.38,13.33-34.73.11-11.52-11.71-20.99-9.79-39.5,1.62-15.6,13.02-25.8,15.96-36.93,4.66-17.61-28.77-30.69-24.04-53.71.59-2.88,7.62-13.17,6.24-14.41-86.07,1.54-173.43,23.55-252.17,57.52-18.16,7.83-34.83,16.81-51.75,26.71-3.72,2.18-10.63,4.92-14.87,6.61-1.32,9.91-3.02,20.13-5.78,29.74-1.4,4.87-4.22,8.52-5.79,13.21,11.74,1.23,30.57-.05,39.62,10.76,2.08,2.49,3.82,6.76-.75,7.43-8.15,1.19-16.87-.1-25.73,2.39-5.42,1.52-7.61,4.56-10.7,5.83-3.42,1.41-2.12-2.03-2.45-3.28,1.86-6.21,21.42-8.78,21.44-10.74.04-4.98-24.36,1.12-28.05-.83,4.88-7.41,3.4-2,6.61-11.56-7.26-.76-1.3-4.84-.09-9.17,2.65-9.48,4.18-22.54,6.96-31.09.96-2.95,4.35-2.3,4.69-2.69l.03.05h0ZM656.03,815.62c-1.8-1.8-5.09,1.48-3.29,3.29,1.8,1.8,5.09-1.48,3.29-3.29ZM371.11,934.54v1.65c1.07-.55,1.07-1.1,0-1.65Z"/>
    <path class="st0" d="M672.56,197.85c20.36,9.02,35.31,36.63,43.74,57.84,2.06,5.17,4.26,10.81,4.16,16.49-.54.09-1.12-.09-1.65,0l-1.65,1.65c-96.52,17.25-179.5,46.22-266.06,91.56-2.71,1.42-4.72,3.04-8.13,2.6.17-1.05-.16-2.25,0-3.3,1.65-10.98,3.35-22.06,4.96-33.04.15-1.05-.15-2.25,0-3.3l33.06-69.37,8.28,5.73,42.06,45.46c8.41-8.89,40.12-86.03,44.82-87.44s52.33,47.89,62.47,51.08l32.3-75.95c.44.21,1.19-.21,1.65,0h0Z"/>
    <path class="st11" d="M477.65,1297.93c2.11.94,12.29,1.47,14.48,3.69,3.24,3.28,8.3,33.67,12.09,40.11-3.23,11.03-24.64,46.59-21.41,55.92.81,2.35,2.11,2.09,4,2.62,7.52,2.11,17.64,4.97,25.13,6.26,6.79,1.17,15.1-1.95,19.35,3.78l31.85,57.34c.18,16.51-5.33,32.75-2.55,49.64,8.03,4.34,16.05,9.08,24.48,12.67,12.36,5.26,29.99,8.26,40.47,14.04,8.54,4.71,33.48,26.58,43.25,34.38,1.95,1.56,4.52,1.87,3.76,5.31-39.43-2.49-71.64-15.23-105.74-33.82-6.5-3.54-30.25-16.41-33.75-20.76-8.87-11-6.05-59.48-3.29-74.26-12.13-5.84-78.28-34.19-81.65-44.06-3.43-10.06,21.07-63.91,24.69-77.16-9.2-4.53-19.95-7.09-28.74-12.52-1.54-.95-.97-3.25-1.12-3.36,11.07-3.25,21.19-8.32,30.6-14.9,2.04-1.43,4.91-1.23,4.08-4.92h.02,0Z"/>
    <path class="st17" d="M623,873.42c-6.41,15.18-43.95,48.21-58.59,57.86-5.07,3.34-31.02,16.54-32.24,18.97-1.5,2.97,1.35,2.52,3.49,1.84,29.74-9.39,66.45-32.84,84.04-58.85l1.65,1.65c-7.34,11.57-13.03,23.8-22.28,34.71-51.16,60.34-131.98,82.39-197.24,28.72-12.65-10.4-21.19-27.36-36.51-32.04-.26-1.38-1.73-3.04-1.65-4.96,3.47.15,4.47-2.3,6.06-4.7,1.83-2.75,1.24-7.37,4.7-6.9,2.31.31,16.41,14.16,22.25,17.41,60.41,33.69,162.06,3.11,210.89-41.05,3.79-3.42,5.57-11.31,13.78-12.66h1.65,0Z"/>
    <path class="st14" d="M763.4,260.61c29.01,30.63,53.98,67.09,67.18,108.73,4.84,15.25-1.2,8.5-2.76,10.2-.42.45,1.06,4.53-.89,5.07-7.94,2.17-27.86-1.4-37.96-.12-2.41.31-5.12,1.26-2.44,3.3,78.4-2.28,156.41,7.94,231.21,30.6,94.24,28.55,197.05,84.17,274.09,145.46,2.72,2.17,15.09,12.22,15.88,13.97,1.34,3,.27,3.59-.49,6.04-3.15,10.23-26.8,41.31-35.85,46.84-3.45,2.11-6.45,1.05-7.49,1.56l1.65-4.96c12.51-4.3,26.45-22.78,32.71-34.19,10.31-18.76.64-18.76-14-30.03-1.82-1.4-4.86-1.38-5.5-1.86-18.95-14.26-37.5-26.57-57.81-39.64-17.09-11-33.86-22.54-52.86-33.04-32.79-18.12-59.33-30.73-94.15-44.6-29.25-11.65-54.83-20.14-85.89-28.08-54.05-13.81-102.31-21.79-158.57-23.12-34.35-.81-69.93,1.17-104.06,4.96-51.46,5.71-102.32,17.09-151.96,31.38-33.52,9.65-65.33,22.17-97.45,34.69-44.23,17.23-81.24,33.4-123.88,54.51-28.66,14.19-56.78,28.1-82.59,44.6-20.67,13.21-45.97,24.11-67.59,37.3-20.69,12.63-42.07,30.51-61.25,41.98-.64.38-4.58-.41-7.52,1.53-4.15,2.74-25.45,15.99-25.53,19.04-.21,8.88,23.23,33.74,29.74,40.55.47.49.8,3.53,3.19,5.85,20.27,19.69,50.03,36.42,77.75,42.05v1.65c-14.33-.14-16.14-.81-30.12-7.04-27.79-12.4-51.76-33.09-69.64-57.55-3.62-4.96-17.38-22.93-15.11-27.87,1.44-3.13,49.36-34.79,56.52-39.39,155.09-99.66,362.73-202.07,546.58-226.46,14.57-1.93,30.57-1.31,45.3-3.44.23-3.86.55-2.92-2.45-3.3-17.2-2.18-40.64,3.97-58.04,6.41-91.12,12.75-178.13,35.21-264.13,67.88-4.96,1.88-9.47,8.53-13.87,2.33-4.04-5.7,7.51-24.33,9.84-31.13,2-5.84,4.13-13.05,5.75-19.03,3.36-12.43,4.33-30.7,7.79-41.76.83-2.66,4.5-5.47,6.24-7.81-.16,1.05.17,2.26,0,3.3-1.82,11.42-3.99,23.43-6.61,34.69-1.79,7.69-4.2,17.36-6.61,24.78-2.65,8.15-6.67,17.45-10.11,25.4-1.04,2.41-8.3,10.25-2.27,9.31,9.14-1.43,32.08-12.79,42.91-16.57,84.27-29.49,174.38-52.02,263.49-61.08.54-.06,1.11.05,1.65,0,1.08-.11,2.22.1,3.3,0,9.5-.91,23.73-3.3,32.21-3.3h24.78c.6,0,2.73-1.61,4.89-1.71,12.34-.58,24.88.55,37.23.06,3.12-3.14-14.68-42.74-17.89-49-1.9-3.71-5.78-6.82-6.89-8.81-4.59-8.24-7.64-14.66-13.21-23.12-3.61-5.48-19.7-32.19-24.78-33.04l-1.65-4.96h0ZM776.61,386.16c-1.04-.19-22.25-1.08-16.5,3.29,1.04.19,22.25,1.08,16.5-3.29Z"/>
    <path class="st14" d="M993,989.05c-16.31,6.98-39.02,9.89-57.79,17.37-90.79,36.17-145.09,107.31-221.51,158.4-22.83,15.27-72.29,45.34-98.82,29.75-8.42-4.95-5.38-9.77-8.01-16.76-4.32-11.48-22.78-25.79-26.02-38.39-5.05-19.63,15.5-32.91,12.32-53.63-1.72-11.18-20.27-23.5-24.39-35.08,6.25-11.05,8.83-31.85,23.64-33.61,31.53-3.73,70.81,3.59,104.17,1.76,30.41-1.67,56.28-5.44,61.48-40.93,2.57-17.56-5.93-25.22-6.3-37.66-.78-26.06,54.28-31.61,59.21-48.17,4.64-15.61-12.57-31.62-12.35-43.98.31-17.53,22.63-30.37,22.6-48.19-.03-17.32-21.07-31.7-17.38-47.08,3.73-15.55,16.08-22.33,12.06-41.74-1.56-7.54-9.75-14.43-9.6-23.4.32-18.77,17.89-32.69,18.29-44.75.64-19.2-23.25-34.39-24.77-44.67-1.41-9.54,10.33-26.07,20.53-27.16,37.12,1.55,74.65,5.32,110.54,15.07,12.28,3.34,54.98,17.42,62.97,24.57,26.91,24.11-1.91,44.96-4.24,68.49-1.95,19.73,3.97,21.46,9.63,36.79,11.7,31.7-15.73,42.73-16.29,69.01-.29,13.55,13.74,33.65,15.08,47.89,1.1,11.66-10.42,28.84-10.16,41.36.21,10.09,11.15,23.64,11.82,31.34,1.34,15.4-8.87,32.58-6.49,54.3.47,4.28,7.83,25.83,6.4,27.45-.48.54-4.04-.45-4.95.01-1.94-14.99-7.41-26.64-6.68-42.2.61-12.98,7.94-27.8,6.73-39.58-.94-9.19-9.14-16.41-10.03-27.98-1.3-17.04,8.97-30.98,8.37-44.59-.73-16.6-14.65-32.2-13.33-51.35,1.23-17.91,16.04-29.86,18.09-44.67,2.85-20.59-13.92-32.41-13.17-52.73.68-18.35,18.3-36.85,16.52-52.67-2.16-19.16-23.48-25.26-38.68-30.77-13.33-4.83-26.75-8.19-40.5-11.53-23.96-5.83-52.12-11.87-76.74-13.28-15.71-.9-29.55-3.36-38.61,11.08-9.46,15.09,9.3,23.79,16.58,37.37,2.62,4.88,4.36,9.52,4.69,15.15,1.03,17.34-16.03,26.48-16.69,46.28-.42,12.55,9.99,20.93,9.99,33.06s-10.86,22.93-12.82,33.43c-3.17,16.99,16.99,29.55,17.19,47.79.17,16.03-20.92,30.01-22.45,46.17-.91,9.63,10.93,25.17,12.47,36.93,3.08,23.65-31.19,29-46.08,38.35-25.44,15.98-6.75,25.82-6.23,47.01,1.68,68.43-82.08,54.12-126.17,53.35-7.21-.13-47.53-.91-50.47.87-1.64,1-13.46,25.33-13.21,28,.55,5.76,20.53,24.76,24.79,33.96,2.42,21.1-18.92,35.98-11.95,57.37,3.08,9.44,16.33,20.22,21.54,29.67,7.45,13.52,2.97,23.14,24.34,23.68,55.38,1.4,143.92-89.53,187.58-122.94,42.98-32.89,110.42-78.06,164.69-84.85,3.2-.4,5.77-.76,8.57,1.27h0Z"/>
    <path class="st8" d="M418.18,391.1c-.82.15-2.49.15-3.3,0,.04-3.26-2.24-4.58-4.1-6.63-39.03-42.99-128.21-123.68-190.28-91.12-16.35,8.58-31.02,29.3-30.26,48.2-1.03-.1-2.27-.08-3.3,0-12.6-38.05,17.41-78.72,51.73-92.8,56.07-23,111.28,14.05,151.46,50.65,7.65,6.97,28.57,26.78,33.11,34.62,5.1,8.82-4.31,45.36-5.05,57.08h-.01ZM418.17,364.68c-.57-7.21,3.62-18.87,2.86-25.42-.88-7.64-40.17-43.92-48.32-50.52-42.83-34.66-105.94-64.53-155.18-23.14-1.25,1.05-12.42,12.04-5.02,9.85,7.08-2.1,14.64-8.39,23.97-10.72,48.22-12.07,95.06,16.77,129.63,47.14,18.49,16.24,34.39,35.73,52.06,52.81h0Z"/>
    <path class="st12" d="M474.34,1188.91c-43.92,9.73-59.24,59.19-101.54,61.19-10.91.52-19.32-4.21-29.71-5.09-28.68-2.44-58.46,5.19-80.96,23.22-3.25,2.6-18.1,19.99-20.66,18.13-19.48-39-37.98-78.6-50.4-120.58-34.37-116.22-32.92-242.17,11.15-355.54,3.31-8.51,9.61-26.66,14.63-33.26,1.22-1.61,1.57-2.54,3.94-2.72,5.46-.42,18.26,2.98,24.78,3.02,29.6.19,61.13-7.34,88.32-18.72,12.92-5.41,26.04-14.63,38.81-19.01,21.64-7.42,46.65-9.42,68.6-16.45l-20.6,26.46c-33.21,31.52-72.46,55.31-108.97,82.64-1.68,6.28-18.26,23.51-18.68,27.39-.42,3.9,3.79,8.87,4.44,13.09,1.17,7.51-.56,16.17.53,24.25,1.85,13.76,13.57,40.24,27.58,45.1,3.47,1.2,8.18-.25,10.85,2.37,3.05,2.99,11.15,20.71,14.98,26.31,9.46,13.85,24.16,33,34.68,46.26,31.12,39.2,80.37,16.35,119.01,10.28,20.98-3.3,42.27-3.13,63.37-5.18-.75,11.27-10.72,17.52-8.15,33.76,1.83,11.57,16.99,20.44,18.06,29.01-30.5,2.72-60.46,24.59-75.66,50.7-7.13,12.25-10.39,25.99-16.84,38.5-1.54.91-3.7,2.16-4.96,3.3,9.05-24.49,17.31-48.17,36.35-66.89,13.95-13.71,35.37-25.05,54.5-28.92,1.95-1.84-8.09-10.2-9.66-12.63-10.03-15.43-6.82-25.99-.25-41.86-16.63,1.22-33.64,1.3-50.17,3.49-43.63,5.79-91.95,32.18-128.16-10.98-10.53-12.56-25.9-33.44-35.42-47.17-3.32-4.79-10.86-20.88-13.41-22.93-2.89-2.33-6.65-1.78-9.7-3.52-30.28-17.29-29.88-44.4-32.51-74.86-.94-10.86-7.3-9.08,1.83-21.56,34.48-47.11,98.41-67.94,134.58-114.83,1.28-1.66,3.2-2.1,2.46-4.96l-56.88,13.31c-14.39,6.22-27.68,14.64-42.24,20.53-36.03,14.55-73.43,20.27-112.31,16.47-27.59,58.45-44.32,123.45-47.96,188.31-6.03,107.4,18.98,215.52,70.31,309.73,1.03,1.15,1.26,2.06,3.16,1.63,1.81-.41,13.31-13.84,16.61-16.46,19.17-15.14,49.94-23.99,74.32-23.1,24.43.9,30.1,11.32,56.98.79,16.98-6.65,30.03-28.24,46.42-39.48,11.83-8.11,25.46-13.65,37.84-20.8-1.15,1.66-2.35,6.09-3.3,8.26h0Z"/>
    <path class="st15" d="M953.36,1114.58c.97-3.34,17.16-8,21.46-9.1,34.47-8.79,79.59-9.47,111.81,7.15,17.29,8.92,7.29,16.34,12.07,32.45-3.88,5.64-6.12-1.72-8.66-2.88-54.05-24.66-133.44,18.46-177.51,49.66l-69.84,54.87c1.15-1.89,3.05-7.84,3.3-8.26,24.28-39.35,50.67-65.84,92.43-86.79,6.72-3.37,44.26-16.79,45.55-18.89,2.15-3.51-.62-15.42-4.2-17.34-5.05-2.71-20.36-1.68-26.41-.86h0Z"/>
    <path class="st15" d="M968.23,1051.81c18.21-2.73,36.9-7.42,55.41-6.67,13.32.53,52.3,8.07,60.01,19.27,1,1.45,11.44,32.5,10.11,33.64-3.83,3.29-7.31-3.15-8.65-3.78-48.87-22.84-109.25-10.32-154.9,14.49-8.59,4.67-48.91,30-52.54,35.92-.36.58,1.39,1.17,1.37,1.28-.15.97-1.28,2.24-1.65,3.3-1.1.02-2.21.01-3.31,0l.85-4.92-20.66,9.87c-3.26-3.3,25.12-32.82,28.94-36.29,22.73-20.63,45.75-30.21,70.16-46.29,1.53-1.01,9.02-2.69,6.33-6.43-1.39-1.93-3.74,1.24-1.38-8.44,3.95-1.46,6.34-3.64,9.91-4.96h0Z"/>
    <path class="st14" d="M484.25,1187.26c-.53.53.54,2.94-3.97,5.04-5.69,2.64-12.11,1.93-17.39,4.16-23.36,9.85-31.33,24.16-47.98,39.57-11.55,10.69-34.15,21.12-50.03,18.55-11.67-1.89-20-5.57-33.7-5.58-36.53-.03-64.09,15.03-87.36,42.26-1.44.59-4.95-3.61-5.59-4.53-3.55-5.14-7.84-14.16-10.92-20.1-70.45-135.95-85.88-299.1-34.58-444.38,2.95-8.35,19.29-51.14,26.59-52.49,36.22,5.98,73.93.36,107.99-12.78,14.39-5.55,29.36-16.43,42.99-21.43,9.08-3.33,23.53-4.31,31.74-7.9,4.86-2.13,7.7-8.56,14.42-10.35,9.49-2.53,10.77.77,17.62,2.06,2.87.54,8.93-4.03,10.14,4.91.72,5.36-23.24,30.32-28.48,35.24-29.27,27.54-67.18,46.09-95.81,71.02-3.26,2.84-19.5,23.09-20.36,25.9-.71,2.34,1.03,25.14,1.53,29.19.44,3.57,4.61,24.83,5.84,25.91.72.63,5.1,2.75,5.55.69-4.12-18.9-16.61-36.39,13.56-27.09,1.33.41,1.14,2.69,2.5,3.07,8.93,2.45,24.55-.08,30.82,1.97,2.79.92,2.12,4.12,2.65,4.73-17.92,1.2-34.87-3.3-51.2-9.9,2.59,13.89,8.76,51.01,29.82,40.55,11.55-5.74,18.61-18.38,21.37-30.65.47.54,3.94-2.03,3.25,3.89-1.44,12.24-20.52,35.48-33.36,33.81-9.34-1.22-13.88-11.1-18.64-17.86-8.08,2.45,1.23,7.78,1.52,8.32,1.27,2.34,1.04,5.05,2.56,7.43,5.78,9.09,17.13,6.68,18.09,7.61.52.51-.36,3.31.5,4.25s3.71.41,5.35,2.13c2.93,3.09,9.66,18.97,13.44,24.6,6.72,9.98,15.83,17.71,22.83,26.72,8.76,11.28,9.5,21.06,23.59,29.27,26.84,15.64,49.72,9.15,77.04,3.35,25.83-5.48,58.11-10.89,84.5-11.36,1.94-.03,3.88.06,5.81.08-.02,1.64.1,3.31,0,4.95-21.1,2.05-42.39,1.88-63.37,5.18-38.64,6.07-87.89,28.93-119.01-10.28-10.52-13.26-25.22-32.41-34.68-46.26-3.83-5.61-11.94-23.32-14.98-26.31-2.67-2.61-7.38-1.17-10.85-2.37-14.01-4.86-25.72-31.34-27.58-45.1-1.09-8.07.63-16.74-.53-24.25-.66-4.23-4.86-9.19-4.44-13.09.41-3.88,17-21.11,18.68-27.39,36.51-27.33,75.76-51.12,108.97-82.64l20.6-26.46c-21.96,7.03-46.97,9.03-68.6,16.45-12.76,4.38-25.88,13.6-38.81,19.01-27.18,11.38-58.72,18.91-88.32,18.72-6.53-.04-19.33-3.44-24.78-3.02-2.37.18-2.72,1.11-3.94,2.72-5.02,6.6-11.32,24.75-14.63,33.26-44.07,113.37-45.52,239.32-11.15,355.54,12.41,41.98,30.92,81.58,50.4,120.58,2.56,1.86,17.41-15.53,20.66-18.13,22.5-18.03,52.28-25.66,80.96-23.22,10.39.88,18.8,5.61,29.71,5.09,42.3-2,57.62-51.47,101.54-61.19,1.39-.31,3.48.46,5.41-.05,1.59-.42.56-4.75,4.5-1.6-1.75-6.3,2.72-5.59,3.3-9.91,5.47-1.43,3.51,5.03.75,8.24-1.26,1.46-3.74,1.34-4.05,1.67v-.02h0Z"/>
    <path class="st12" d="M1275.46,1231.86c-.82.24-3.96.18-4.96,0-3.72-9.94-12.88-15.15-20.73-21.46-2.1-1.69-2.18-4.8-2.4-4.97,6.19,3.98,12.09,6.74,18.27,12.31,2.41,2.17,2.96,5.65,3.23,5.85,3.08,2.18,7.3-8.28,8.27-10.69,31.81-79.57,46.18-175.54,39.59-261-7.59-98.34-43.07-197.38-103.55-274.75-6.18-1.91-11.79,2.48-17.83,3.03-13.18,1.19-34.57.88-47.98.06-16.12-.99-16.17-2.02-33.09-.2-36.44,3.93-73.14,4.82-109.78,5.84-1.92,1.31-1.62,2.64-1.32,4.64.69,4.62,10.44,16.56,12.46,24,4.06,14.97,1.16,29.72-4.88,43.69-3.57,8.25-10.36,14.02-11.22,23.46-2.1,23.13,15.98,39.52,11.25,67.42-1.12,6.62-7.51,16.73-7.62,23.48-.17,9.73,8.56,18.7,9.66,28.11,2.75,23.53-9.96,39.23-4.47,63.93,5.3,23.85,6.54,16.2,25,21.25,62.97,17.23,79.38,91.35,85.15,147.75,1.27,12.44-4.1,19.06,5.77,28.91,29.59,29.53,71.39,18.04,107.45,32.95,7.53,3.11,10.37,6.58,15.64,9.96-1.58-1.2-33.71-11.93-37.62-12.76-32.91-6.96-55.68.18-84.63-24.39-16.93-14.37-9.89-16.93-11.56-36.34-2.6-30.35-8.6-66.95-23.43-93.84-14.91-27.02-42.75-52.06-75.66-49.05-2.39-1.41-4.2-3.56-6.61-4.96,1.69-9.23-3.75-17.15-4.78-25.78-2.78-23.39,11-41.66,3.61-64.72-1.82-5.66-8.69-15.51-8.57-21.03.09-4.13,6.53-15.91,7.7-21.82,5.58-28.25-7.23-36.7-10.77-59.47-2.85-18.32,10.61-27.01,15.24-43.43,4.11-14.59,3.79-26.75-2.14-40.72-3.66-8.61-16.84-20.01-4.43-25.31,26.96-.92,54.02-1.57,80.93-3.32,13.17-.86,28.5-4.63,41.23-5,25.33-.74,46.81,5.06,74.32,1.63,5.62-.7,7.75-5.93,15.04-1.65,5.76,3.37,32.37,46.5,37.35,55.14,74.01,128.22,87.63,280.41,48.8,422.67-7.45,27.31-19.12,53.31-25.96,80.58h.03Z"/>
    <path class="st14" d="M1275.46,1231.86c6.84-27.27,18.51-53.27,25.96-80.58,38.83-142.26,25.21-294.45-48.8-422.67-4.99-8.64-31.59-51.76-37.35-55.14-7.3-4.27-9.42.95-15.04,1.65-27.51,3.43-48.99-2.37-74.32-1.63-12.73.37-28.06,4.14-41.23,5-26.91,1.75-53.96,2.39-80.93,3.32-12.41,5.3.77,16.7,4.43,25.31,5.93,13.97,6.25,26.13,2.14,40.72-4.63,16.42-18.1,25.11-15.24,43.43,3.55,22.77,16.36,31.22,10.77,59.47-1.17,5.91-7.61,17.69-7.7,21.82-.12,5.51,6.75,15.37,8.57,21.03,7.4,23.06-6.39,41.33-3.61,64.72,1.03,8.63,6.47,16.55,4.78,25.78-.46-.27-2.53.6-3.09-.15-.61-.81-.41-6.91-1.24-9.55-1.96-6.18-4.89-10.72-5.54-17.57-1.86-19.48,8.91-37.65,6.62-56.19-.96-7.75-11.56-21.58-11.44-28.07.12-6.27,9.82-23.74,9.86-34.65.07-19.74-13.68-37.59-11.76-57.9,1.33-14,18.34-30.55,18.36-51.12.01-13.48-18.4-40.33-14.62-46.74.32-.54,9.23-6.68,10.41-6.91,20.48-3.99,53.34,4.49,73.95-2.03,2.9-.92,3.11-3.97,8.51-4.7,30.02-4.09,65.08,4.93,95.88,3.38,8.32-.42,26.65-5.48,33.15-1.72s27.2,36.7,32.4,45.22c89.31,146.24,99.69,323.09,41.8,483.4-2.94,8.13-7.32,21.43-11.08,28.58-1.03,1.96-2.34,3.85-4.58,4.49h-.02Z"/>
    <path class="st4" d="M1260.59,1256.64c-15.33,3.13-43.66,4.75-53.59,18.27-13.26,18.06.95,40.66,2.38,59.37,2.01,26.26-20.7,17.07-39.64,18.17,2.5-3.55,4.78-6.98,6.15-11.19,2.1-6.48,2.17-14.38,3.76-20.19,1.38-5.02,5.28-8.28,6.23-12.76,3.39-16.03-12.54-54.22-7.53-62.88,3.73-6.44,40-11.15,49.16-14.41,3.76-1.34,11.66-7.6,12.37-7.48,4.19.72,20.99,19.46,22.79,23.67,2.56,5.99-.4,5.58-2.08,9.45v-.02h0Z"/>
    <path class="st6" d="M973.18,1183.96c-.41-1.98-4.75-6.06-3.18-9.75,37.09-18.26,82.39-32.73,121.57-12.02,10.36,5.48,18.88,14.25,27.48,22.07,1.61,1.46,3.55,1.46,2.78,4.64-38.66,7.01-74.91,2.04-112.31-8.24l1.64,16.51c-1.46-2.51-8.44-16.36-9.37-16.58-6.86-1.65-21.99.03-28.63,3.37h.02,0Z"/>
    <path class="st6" d="M442.96,1317.75c-1.67-1.16-4.8-1.15-8.3-4.09-3.7-3.11-16.58-15.11-15.86-19.07,1.14-6.3,8.43-20.18,11.74-26.43,6.29-11.91,34.47-55.27,44.55-61.16,2.65-1.55,4.44-2,7.52-1.57v27.25c0,.55,1.69,1.31.89,3.99-1.17,3.93-19.6,24.83-23.71,31-7.03,10.56-11.38,11.26-.14,19.34,3.67,2.64,14.24,9.23,18.01,10.91.82,3.69-2.04,3.49-4.08,4.92-9.41,6.58-19.53,11.65-30.6,14.9h-.02Z"/>
    <path class="st15" d="M943.45,1015.48c11.52-1.57,24.91-8.81,37.65-11.08,28.76-5.11,55.09-2.95,77.19,17.64,1.67,1.55,18.76,19.73,8.61,16.17-44.98-15.75-59.88-9.38-103.63,2.04-1.8.47-4.76-.45-6.61,0-.96.23-2.31-.22-3.3,0-3.02-5.27-6.51-15.79-13.21-16.52.17-1.04-.26-2.44,0-3.3.45-1.52,2.56-3.34,3.3-4.96h0Z"/>
    <path class="st14" d="M844.34,376.24c-3.54,1.15-5.29-7.31-6.05-9.65-17.07-52.51-51.14-100.82-87.25-142.34-17.38-19.98-65.15-61.58-69.88-85.44-2.91-14.69,21.87-27.93,34.05-31.28,95.23-26.26,118.61,114.31,128.9,178.92,1.8,11.32,13.19,89.51,10.01,92.94-2.56.94-3.97.72-6.47.15,2.81-2.68,1.91-8.82,1.63-12.38-4.28-53.25-12.48-114.95-26.79-164.81-14.37-50.07-45.69-108.82-107.71-90.31-7.67,2.29-31.83,14.58-30.35,23.47,1.08,6.49,11.73,24.47,16.25,30.08,15.63,19.41,37.67,38.34,54.43,57.89,39.37,45.92,74.38,93.31,89.24,152.75h-.01Z"/>
    <path class="st13" d="M844.34,376.24c-14.86-59.44-49.87-106.83-89.24-152.75-16.76-19.55-38.79-38.48-54.43-57.89-4.52-5.61-15.17-23.59-16.25-30.08-1.48-8.9,22.69-21.18,30.35-23.47,62.02-18.51,93.34,40.24,107.71,90.31,14.31,49.86,22.51,111.56,26.79,164.81.29,3.56,1.19,9.7-1.63,12.38-.59-.13-1.37.21-1.65,0l-1.65-1.65c-.15-.48.13-1.12,0-1.65h0ZM842.67,346.51c-4.74-42.29-10.08-86.21-20.29-127.53-12.28-49.71-34.95-112.86-97.62-105.19-8.12.99-35.04,11.65-35.78,20.55-.22,2.68,7.32,17.15,9.3,20.43,11.79,19.5,36.99,40.14,52.75,57.92,30.15,34.03,58.29,71.68,79.79,111.82,3.75,7.01,6.27,16.64,11.85,22h0Z"/>
    <path class="st14" d="M680.82,110.3c-1.43-.92-4.5,2.3-5.07-2.44-1.52-12.64,10-37.98,19.05-47.18,27.35-27.8,70.48-32.79,105.54-17.87,78.95,33.62,100.3,181.13,103.54,256.54.49,11.42,1.32,76.76-1.77,82.28-.98,1.74-3.17,1.05-3.25,1.21.49-46.58.37-93.1-5.17-139.36-7.72-64.44-31.12-173.69-100.09-198.88-49.17-17.96-113.7,7.76-112.77,65.7,26.41-20.64,66.17-25.47,95.83-9.11,47.14,26,63.59,93.88,73.54,142.85,9.09,44.75,16.04,91.44,15.63,137.16l33.04,1.65c-.48.92,1.11,4.52-.9,5.06-2.64.71-26.43-1.02-29.5-1.98-2.77-.86-2.11-4.12-2.64-4.74-.17-.19-2.88.76-3.35-1.08-1.63-19.56-1.25-39.59-3.39-59.08-5.6-50.99-21.68-141.96-50.71-183.84-26.05-37.59-63.38-53.52-107.7-34.29-4.07,1.77-18.16,11.61-19.61,10.4-.63-.53-.03-2.86-.24-3h0Z"/>
    <path class="st15" d="M499.12,1238.47c-1.98-43.49,3.04-86.86,37.21-117.23,1.56-1.39,12.88-11.1,13.99-9.95-2.47,8.07-8.22,14.17-11.85,21.99-5.08,10.97-11.62,30.56-11.27,42.42-3.59,4.61-3.08,11.07-3.3,16.52-4.07-.85-3.51,1.9-4.52,4.49-10.36,26.56-9.68,52.79-10.31,80.64-.07,3.14.8,6.49-1.7,9.02-.43-.38-3.01.35-3.3,0-.24-.29,1.21-4.42.92-6.66-.74-5.74-3.57-12.97-4.23-18.11-.14-1.07.12-2.23,0-3.3-.7-6.54-1.35-13.24-1.65-19.82h0Z"/>
    <path class="st12" d="M940.14,1020.43c-.26.87.17,2.27,0,3.3-4.38-.48-13.1,4.1-17.64,6.31-85.52,41.48-145.25,119.39-225.95,163.87-23.71,13.07-50.59,26.56-78.5,19.79l3.53,27.84c39.44,4.13,76.8-7.89,108.63-30.48l34.84-28.76c-4.72,6.33-7.64,10.72-14,16.56-34.35,31.6-85.65,55.15-133.01,47.86-.61-.74-.87-1.04-1.65-1.65-.74-12.92,3.8-27.44-8.26-36.34-.03-1.1,0-2.2.01-3.29.57-.46,5.44,1.22,6.6,1.64,30.6,11.15,55.35-3.01,82.05-17.89,80.94-45.1,145.34-129.97,231.81-166.26,3.7-1.55,7.44-2.81,11.54-2.5h0Z"/>
    <path class="st13" d="M400.01,447.26c-.54.07-1.11-.06-1.65,0-22.76-8.77-44.96-18.99-68.1-26.88-25.86-8.81-96.86-22.84-112.83-39.13-5.54-5.65-9.58-17.99-10.5-25.84-4.02-34.51,21.66-55.29,54.98-51.68,43.35,4.7,108.86,61.67,137.29,93.95,1.83,2.08,11.83,13.53,12.09,14.43,2.38,8.21-9.38,26.47-11.29,35.14h.01ZM242.7,308.94c-30.29,4.41-40.1,41.7-25.06,65.49,11.4,18.03,64.22,25.58,85.22,32.06s43.53,14.81,64.56,22.98c4.95,1.92,25.87,12.59,28.5,12.31,3.13-.33,12.84-26.18,11.58-29.16-38.86-38.59-104.22-112.5-164.81-103.68h.01Z"/>
    <path class="st14" d="M400.01,447.26c1.91-8.68,13.67-26.94,11.29-35.14-.26-.9-10.26-12.35-12.09-14.43-28.43-32.28-93.94-89.25-137.29-93.95-33.33-3.61-59,17.17-54.98,51.68.91,7.86,4.96,20.2,10.5,25.84,15.97,16.29,86.97,30.32,112.83,39.13,23.14,7.89,45.34,18.1,68.1,26.88.76,4.96-1.88,3.42-5.07,2.6-22.32-5.76-52.78-22.35-77.16-30.21-25.35-8.18-88.88-18.86-103.64-38.41-24.62-32.63-2.9-80.96,37.97-82.72,48.48-2.09,124.74,65.52,155.35,100.82,11.2,12.93,12.21,11.4,6.65,28.17-2.02,6.09-6.34,18.93-12.45,19.76v-.02h-.01Z"/>
    <path class="st12" d="M594.92,1195.52c-2.16,17.72,4.87,18.7,6.52,28.99,1.82,11.35.44,28.35,1.75,41.19,10.51,102.58,52.94,227.39,118.96,307.2,3.17,3.83,14.67,11.2,9.87,15.74-14.54-.53-21.31-6.21-31.41-15.67-46.49-43.57-86.96-116.49-110.65-175.94-1.66-4.17-2.81-9-4.96-13.21,5.43.19,2.12,2.07,3.86,4.32,8.02,10.36,12.07,28.01,18.05,40.67,22.39,47.42,56.75,103.57,94.46,140.09,1.69,1.63,13.3,11.89,14.15,12.28,1.82.83,9.96,2.55,8.21-1.59-47.65-54.99-79.41-124.31-100.28-193.74-12.91-42.94-25.19-98.53-26.56-143.24-.43-14.22,4.06-11.14-4-26.13-1.63-3.02-.35-9-5.93-5.68-.86.51-1.35,5.47-5.27,4.56.67-1.44.25-4.23,1.87-7.17s7.64-12.05,11.35-12.65v-.02h0Z"/>
    <path class="st12" d="M760.1,1246.72c1.94-2.11,3.88-8.77,9.9-8.25,6.13,6.9-30.7,47-37.2,52.8-15.43,13.78-53.67,36.38-74.29,36.38h-23.95c-.06,3.88,2.82,19.59,5.29,21.14,3.92,2.47,32.23,2.44,38.55,2.05,63.65-3.94,111.81-47.76,151.73-92.73l15.85-19.66c-.26.42-2.15,6.36-3.3,8.26-17.38,28.63-63.56,69.78-93.04,86.18-34.64,19.26-72.89,26.53-112.34,20.93-7.02-2.25-6.9-24.93-7.69-31.12,41.74,5.85,83.41-14.6,111.52-44.57,4.14-4.41,19.33-22.17,21.42-26.49,1.81-3.76.24-7.33-2.44-4.92-.19.17-.28,2.86-1.6,4.17-1.13,1.12-2.85,1.85-3.36,2.44-1.7-6.25,4.14-5.72,4.96-6.61h-.01Z"/>
    <path class="st14" d="M500.77,1261.59c.65,5.14,3.49,12.37,4.23,18.11.29,2.24-1.16,6.37-.92,6.66.3.36,2.87-.37,3.3,0,.12.11.06,2.53,0,3.3-.21,2.9-.64,2.37,0,6.61,13.27,87.68,93.57,208.83,161.31,266.53.47.4,7.59,9.02,5.5,1.92-.97-3.29-19.43-23.72-23.47-29.4-29.39-41.4-45.97-85.87-62.4-133.33l1.65-4.96c23.68,59.45,64.15,132.37,110.65,175.94,10.1,9.46,16.87,15.14,31.41,15.67-8.51,8.04-23.09-3.41-29.76-9.06-19.91-16.87-36.68-42.15-53.68-61.95-4.06-.64-2.72,2.85-1.6,4.91,8.25,15.19,22.52,27.99,31.79,42.56,3.3,4.64-3.64,7.72-6.28,6.2-.77-.44-1.07-2.9-2.13-3.55-52.49-32.22-112.79-127.22-137.38-183.92-17.02-39.24-26.08-75.48-34.8-117.17-.67-3.2-2.52-5.79,2.59-5.06h0ZM637.84,1499.46c-1-.88-4.07-.64-3.19,2.37.42,1.45,9.18,16.56,11.48,14.13-.45-2.57-7.44-15.75-8.28-16.5h0Z"/>
    <path class="st14" d="M1260.59,1256.64c-3.12,7.15-6.4,14.51-9.91,21.47-6.41.44-26.15,4.21-28.91,9.9-3.56,7.33,2.84,21.51,2.48,29.75-1.71.93-4.4,2.2-5.62,3.42-4.56,4.57-2.58,12.23-9.24,13.09-1.43-18.71-15.64-41.31-2.38-59.37,9.93-13.52,38.25-15.14,53.59-18.27h0Z"/>
    <path class="st14" d="M418.18,391.1c.74-11.72,10.15-48.26,5.05-57.08-4.53-7.83-25.46-27.65-33.11-34.62-40.18-36.61-95.39-73.66-151.46-50.65-34.33,14.08-64.33,54.75-51.73,92.8-.18.01-1.51,2.34-3.29,1.66-16.05-45.36,23.4-92.01,66.09-103.2,61.75-16.19,139.08,42.86,175.01,89.2,2.15,2.77,6.31,8.05,6.43,11.43.32,8.83-4.55,23.79-6.19,33.34-1.12,6.53,2.1,15.55-6.82,17.14l.02-.02h0Z"/>
    <path class="st14" d="M1247.38,1205.43c.22.17.29,3.27,2.4,4.97,7.85,6.31,17,11.53,20.73,21.46-5.14-.94-17.91-15.29-24.23-19.54-41.29-27.78-90.28-6.37-128.6-44.83-13.53-13.58-7.63-20.41-9.06-37.19-4.1-48.4-18.48-119.4-72.74-135.38-8.31-2.45-14.1-1.57-21.4-5.86,32.91-3.01,60.75,22.03,75.66,49.05,14.84,26.89,20.84,63.49,23.43,93.84,1.66,19.42-5.37,21.97,11.56,36.34,28.95,24.57,51.72,17.42,84.63,24.39,3.91.83,36.04,11.56,37.62,12.76h0Z"/>
    <path class="st14" d="M943.45,1015.48c-.75,1.62-2.85,3.44-3.3,4.96-4.1-.31-7.84.95-11.54,2.5-86.47,36.29-150.86,121.16-231.81,166.26-26.7,14.88-51.44,29.04-82.05,17.89l27.23-.03c73.09-17.31,124.7-76.19,181.79-120.48,27.46-21.31,87.92-66.76,119.68-71.1h0Z"/>
    <path class="st4" d="M295.95,1364c-.2-.33-3.95-.98-6.59-4.14-4.94-5.92-38.21-52.49-37.7-55.83.07-.47,3.06-5.56,3.34-5.72,6.64-3.84,6.44,3.31,8.79,6.15,2.83,3.4,7.31,7.99,10.66,10.84,7.6,6.47,35.17,20.54,36.36,28.89l-14.87,19.82h0Z"/>
    <path class="st14" d="M766.71,1180.65c5.14-.45,3.53.92,1.72,4.2-15.44,28.06-54.06,60.11-83.88,71.39-21.85,8.26-43.27,9.83-66.5,8.65l6.61,39.64c43.99,8.14,94.13-11.03,124.83-42.9,1.79-1.86,1.93-4.52,2.36-5,.92-1.02,2.09-1.91,3.3-3.3.51-.59,2.23-1.31,3.36-2.44,1.32-1.31,1.4-4,1.6-4.17,2.69-2.41,4.26,1.16,2.44,4.92-2.08,4.32-17.28,22.07-21.42,26.49-28.11,29.97-69.78,50.43-111.52,44.57-.02-.18-2.38-1.24-1.65-3.29,23.76,1.6,47.61-2.17,68.86-12.91l10.41-8.57c-13.57,3.84-28.03,10.32-42.14,11.53-7.7.66-29.55,1.3-36.36.06-4.78-.87-3.39-4.33-4.08-4.99-.26-.24-2.06.74-3.82-2.03-2.79-4.38-7.76-34.87-5.65-37.29.65-.75,2.78-.18,2.87-.33.51-.82-1.05-4.74.83-5,4.01-.56,14.8,1.92,21.46,1.67,26.16-.99,58.79-13.35,79.02-29.99,1.81-1.49,4.64-2.65,4.42-5.49l-33.82,15.73c-9.63,2-18.77,6.56-28.6,7.74-7.4.89-36.32,1.95-42.35.55-2.03-.47-.59-2.94-.96-3.39,47.36,7.3,98.66-16.25,133.01-47.86,6.35-5.84,9.28-10.23,14-16.56.32-.43,1.09-.84,1.65-1.65v.02h0ZM717.98,1291.32v1.65c1.07-.55,1.07-1.1,0-1.65Z"/>
    <path class="st15" d="M565.19,1116.23l6.61,1.65c-1.2,5.66-2.08,13.19-1.63,18.98.4,5.17,4.77,13.84,4.57,16.26s-8.61,18.54-10.37,24.23c-3.46,11.18-5.15,21.42-5.79,33.03-.09,1.64.07,3.31,0,4.96h-1.65c-.52-4.13,1.65-10.36-1.65-13.21-.21-4.38.08-8.83,0-13.21-.1-5.54-2.21-11.11-1.65-18.17.14-1.71,3.35-6.35,1.64-9.9l-11.55,4.95c.81-3.2.57-8.15,1.65-11.56,4.77-15.06,12.32-26.3,19.82-37.99v-.02h0Z"/>
    <path class="st13" d="M464.43,733.02c-.89-3.41,1.63-7.31-2.45-6.59-6.46,6.41-10.51,14.69-16.52,21.48-29.86,33.75-69.22,54.63-103.25,83.4,11.45.45,23.41-5.19,34.28-7.01,16.73-2.81,40.8-7.3,54.91,2.88v3.3c-30.18-14.49-72.89,5.25-103.23,11.58-4.08.85-1.05-4.78-.84-4.97,45.37-41.46,93.46-57.1,128.84-112.32.65-1.02.99-2.29,1.65-3.3,3.69,1.95,28.09-4.15,28.05.83-.02,1.95-19.58,4.52-21.44,10.74v-.02h0Z"/>
    <path class="st6" d="M687.42,1382.17c-1.68,3.43-11.08,2.87-11.54,3.34-1.22,1.27,5.47,30.64,6.58,34.66-10.41-2.49-23.01-15.75-29.68-24-6.2-7.66-11.21-15.25-11.6-25.54,11.44,3.74,30.18-.89,40.11,1.99,6.12,1.78,4.91,7.67,6.13,9.56h0Z"/>
    <path class="st14" d="M447.92,331.64l-5.06-4.05c4.03-17.99,5.47-35.24,12.02-52.58,13.21-34.96,35.22-49.85,66.25-67.54,47.49-27.08,98.53-47.02,151.41-60.83.35,1.32-.41,4.31,0,4.96.12.18,2.93.11,4.03,1.68,21.02,30.36,44.95,49.4,65.3,76.82,2.39,3.22,5.33,6.22,5,10.7-1.16-1.26-4.62-1.29-4.96-1.65-3.71-4.06-10.22-15.58-15.67-21.5-19.07-20.73-43.74-38.77-53.71-66.05-3.2-2.28-58.29,16.99-66.34,20-1.55.58-2.47,2.91-3.03,3.12-35.02,13.54-66.88,26.18-98.97,47.21-42.49,27.86-44.92,51.64-56.3,98.14-1.26,5.14,0,3.55,0,4.96,0,1.07.15,2.29,0,3.3s.15,2.25,0,3.3h.03Z"/>
    <path class="st6" d="M672.56,197.85l5.86-1.73,53.6,57.07c8.21,4.43,3.52-9.74,9.91-14.04.33.36,3.8.39,4.96,1.65,5.79,6.31,10.63,13.6,16.52,19.82l1.65,4.96c-14.18,2.96-28.67,4.24-42.95,6.61-.54.09-1.12-.09-1.65,0,.1-5.67-2.1-11.32-4.16-16.49-8.44-21.21-23.38-48.82-43.74-57.84h0Z"/>
    <path class="st14" d="M545.37,1154.22c-1.08,3.41-.84,8.37-1.65,11.56-6.22,24.64-9.31,43.49-9.91,69.37-.09,3.84-.04,7.72,0,11.56.21,21.02,1.34,42.41,6.61,62.77-.43.48.92,3.44-.82,3.3-3.79-4.64-5.68-13-7.28-19.15-4.62-17.8-7.6-38.54-8.42-56.82-.27-6,.03-12.15,0-18.17-.05-8.75-.35-17.7,0-26.43.22-5.45-.29-11.91,3.3-16.52,0,.29,1.76,2.56,1.77,5.58,0,7.73-1.77,14.96-1.83,21.65-.02,2.64,1.47,4.29,3.34,2.5,1.46-1.39,2.57-20.75,3.52-25.41.93-4.57,3.56-15.48,4.91-19.54.14-.43,4.73-7.19,6.46-6.25h0Z"/>
    <path class="st14" d="M414.88,391.1c-6.26-1.15-26.36-24.51-33.01-30.58-37.83-34.5-93.37-81.34-148.45-67.46-23.29,5.87-38.42,26.84-39.89,50.14-2.33.79-3.11-1.63-3.29-1.65-.76-18.9,13.91-39.62,30.26-48.2,62.07-32.56,151.25,48.13,190.28,91.12,1.86,2.05,4.13,3.37,4.1,6.63h0Z"/>
    <path class="st15" d="M594.92,1195.52c-3.71.6-9.79,9.82-11.35,12.65s-1.19,5.73-1.87,7.17c-.92,1.96-6.61,10.11-6.61,10.74v34.69c0,.43,2.35,2.21,1.65,4.12-5.09.81-4.45-6.96-9.9-6.6.45-3.31,1.49-5.48,1.65-9.91.22-6.01-.39-12.18,0-18.17.11-1.64-.11-3.32,0-4.96.58-8.95,6.83-49.06,12-54.04,6.41-6.17,17.27,9.51,17.68,15.33.33,4.69-3.07,7.53-3.25,8.99h0Z"/>
    <path class="st11" d="M403.32,688.42v3.3c-28.52,20.1-42.03,36.67-77.66,50.35-43.98,16.89-63.3,11.19-107.34,10.76v-1.65c-.13-1.48,1.23-2.4,1.65-3.3,39.98,4.37,75.32,1.76,112.33-14.04,29.8-12.72,47.44-32.39,71.02-45.43h0Z"/>
    <path class="st15" d="M1159.83,1373.91c8.35-2.5,13.78-1.32,22.31-1.64,2.86-.11,8.28-3.99,7.41.79l-34.64,41.35-3.33.78c-.59-9.52-3.01-20.18-1.66-29.72,5.37-.46,8.54-6.86,9.91-11.56h0Z"/>
    <path class="st14" d="M963.27,1040.25c.91,6.08-.41,3.92-3.6,5.42-7.39,3.46-17.18,7.1-22.82,12.74,10.53-1.72,18.42-6.46,29.28-7.69,1.18-.13,1.99,1.12,2.11,1.1-3.57,1.32-5.96,3.5-9.91,4.96-29.91,11.04-61.36,25.4-87.54,44.6l-1.65-1.65c29.44-23.61,49.22-37.49,82.99-55.02,2.27-1.18,5.51-.02,4.56-4.45,1.85-.45,4.81.47,6.61,0h-.03Z"/>
    <path class="st6" d="M809.65,1311.14c-15.59,25.49-45.93,47.12-74.33,56.16.55-2.66-1.29-6.6,1.67-9.07,25.37-12.56,48.94-28.55,69.48-48.04,1.89-1.61,2.91.9,3.18.95h0Z"/>
    <path class="st14" d="M558.58,1210.39c5-.92,3.18,2.53,3.3,5.71.49,12.37-.37,24.87,0,37.23l6.6-4.95c-.16,4.43-1.21,6.6-1.65,9.91-.12.88-.16,2.5,0,3.3s.84,1.43,1.65,1.65c2.3,24.6,2.33,49.32,8.28,73.49-3.97,3.27-5.71-5.81-6.63-9.07-6.3-22.53-10.59-52.59-11.56-75.98l1.64-.84-1.64-2.46c-.35-10.62-.42-22.43,0-33.04.07-1.65-.09-3.31,0-4.96h.01Z"/>
    <path class="st15" d="M1250.68,1278.11c-4.33,8.57-16.04,32.52-21.36,38.59-1.93,2.2-4.2.58-5.07,1.05.36-8.23-6.04-22.41-2.48-29.75,2.76-5.69,22.5-9.46,28.91-9.9h0Z"/>
    <path class="st14" d="M578.41,1084.85c.2,1.64.65,2.59-1.07,3.36-6.45,2.9-17.19,4.53-24.83,7.9-25.32,11.18-41.34,29.85-52.94,54.43-3.95,8.38-3.77,19.12-12.01,23.51-.43.23-1.25-.24-1.65,0,6.44-12.5,9.71-26.25,16.84-38.5,15.21-26.11,45.16-47.98,75.66-50.7h0Z"/>
    <path class="st12" d="M1110.28,1454.85l-46.25,36.34c-.24-.25-3.5.51-3.23-.73.4-1.86,2.47-4.27,2.85-7.08,1.98-14.5-.57-37.92,21.01-33.45,3.84,1.67,25.05,2.3,25.62,4.93h0ZM1100.36,1456.51c-6.39-.32-21.15-4-26.44-.86-3.34,1.98-6.42,22.27-6.57,27.27,1.35,1.47,18.26-11.31,20.61-13.24,2.03-1.67,14.37-11.31,12.41-13.17h-.01,0Z"/>
    <path class="st14" d="M416.53,1251.68c1.07-.12,2.21.05,3.29,0,1.21,1.49-9.53,22.09-11.03,26.12-2.66,7.16-3.51,15.21-6.92,22.21.4,2.83,15.6,19.83,18.75,22.72,6.93,6.37,19.25,11.08,24.01,15.7,1.51,1.47,1.37,2.25,1.63,4.08-20.34-6.2-36.57-24.55-48.91-41.25,3.25-17.65,11.6-33.58,19.18-49.6v.02h0Z"/>
    <path class="st12" d="M964.92,1545.7c-.1-.31-1.55-.68-1.27-2.09,5.41-6.38,7.16-28.46,15.68-30.7,7.38-1.94,24.69,8.63,33.5,6.36-.12,1.61.22,3.38-.01,4.96l-47.9,21.47h0ZM1001.26,1520.93c-21.12-6.1-26.24-4.07-29.72,18.15.94,1.03,23.32-10.39,25.32-11.83,2.27-1.62,4.97-2.97,4.4-6.32h0Z"/>
    <path class="st12" d="M953.36,1114.58c-.35,1.22.5,4.52,0,4.93-.54.44-6.24-.34-8.71.38-4.54,1.33-12.18,4.37-16.94,6.19-10.36,3.96-43.63,23.07-50.32,23.18.37-1.06,1.5-2.33,1.65-3.3,22.23-11.69,49.29-27.98,74.33-31.38h-.01Z"/>
    <path class="st9" d="M760.1,1585.34c-1.18.88-6.24-.89-7.78-2.16-2.53-2.09-12.66-13.66-15.3-16.89-5.19-6.35-12.14-18.41.75-9.01,3.1,2.26,22.45,20.97,23.06,23.08.32,1.09-.54,4.82-.74,4.97h.01Z"/>
    <path class="st12" d="M864.16,1577.08c.26-3.68,10.32-13.96,12.76-14.62,4.13-1.12,16.5,3.01,16.98,8.02.05.47.11,1.21,0,1.65-10.86-.68-16.62,5.41-28.08,4.96-.54-.02-1.13.08-1.65,0h0Z"/>
    <path class="st14" d="M1110.28,1454.85c.48,2.21-.37,4.04-1.57,5.85-2.78,4.2-38.59,32.84-42.32,33.75-3.59.87-1.96-2.86-2.36-3.26l46.25-36.34h0Z"/>
    <path class="st14" d="M1012.82,1524.22c-.4,2.75-.38,2.97-2.64,4.75-5.24,4.12-29.29,15.95-36.08,18.46-2.64.97-5.3,1.78-8.16,1.7-1.99-.39-.71-2.5-1.02-3.43l47.9-21.47h0Z"/>
    <path class="st14" d="M864.16,1577.08c-8.64-1.36-1.11-2.93-.11-4.58,1.92-3.18,1.82-5.86,5.24-9.3,10.56-10.62,19.48-2.3,29.53,4l-4.92,3.27c-.48-5-12.84-9.14-16.98-8.02-2.44.66-12.49,10.94-12.76,14.62h0Z"/>
    <path class="st14" d="M616.4,1245.07c-.76-.59-3.74.37-4.72-2.68-1.65-5.18.4-16.3-.33-22.82-.4-3.61-3.09-6.02-3.21-10.83,12.06,8.9,7.52,23.42,8.26,36.34h0Z"/>
    <path class="st12" d="M565.19,1116.23c.52-.8-.17-3.65,2.37-6.68,1.21-1.45,10.89-11.58,12.49-9.83-1.65,8.23-6.42,9.56-8.25,18.16l-6.61-1.65Z"/>
    <path class="st9" d="M310.82,1344.18c.97,6.76-6.57,19.98-11.53,23.98-4.78,3.84-2.7-3.13-3.33-4.16l14.87-19.82h0Z"/>
    <path class="st14" d="M893.9,1572.12c-.25,1.03.1,2.48-.71,3.36-2.04,2.22-18.39,3.37-22.76,3.74-2.89.25-5.27,3.52-4.61-2.15,11.46.46,17.22-5.63,28.08-4.96h0Z"/>
    <path class="st15" d="M487.56,1174.05c-.1,1.08.14,2.25,0,3.3-.58,4.32-5.05,3.61-3.3,9.91-3.95-3.15-2.91,1.18-4.5,1.6-1.93.51-4.02-.26-5.41.05.95-2.16,2.16-6.6,3.3-8.26.13-.19,2.77-2.82,3.3-3.3,1.26-1.14,3.42-2.4,4.96-3.3.4-.24,1.22.23,1.65,0h0Z"/>
    <path class="st14" d="M499.12,1238.47c.3,6.58.95,13.28,1.65,19.82-5.77.2-4.56,1.03-4.96-4.05-.25-3.16-.12-6.87,0-10.07s-1.7-6.62,3.3-5.7h.01Z"/>
    <path class="st14" d="M1131.75,1401.99c-.84-9.48-1.51-9.78,0-19.82,2.7,5.04,2.87,15.2,0,19.82Z"/>
    <path class="st7" d="M1159.83,1373.91c-1.37,4.7-4.54,11.1-9.91,11.56,1.15-8.14,3.19-9.56,9.91-11.56Z"/>
    <path class="st14" d="M1125.14,1435.03l6.61-11.56c-.95,5.63,1.83,10.06-6.61,11.56Z"/>
    <path class="st14" d="M568.5,1225.25c-.11,1.64.11,3.32,0,4.96-4.92,1.45-5.25-6.24,0-4.96Z"/>
    <path class="st14" d="M1073.94,1430.07c-1.1.8,2.86,2.56-3.3,3.3-.39-3.51-.2-3.7,3.3-3.3Z"/>
    <path class="st14" d="M1090.46,1431.72c-.23.03-1.52,2.31-3.29,1.64-.18-.95.25-3.09-.01-3.29l3.3,1.65Z"/>
    <path class="st14" d="M1116.88,1435.03c-1.39.02-.76.27-3.3,0l.84-1.64,2.46,1.64h0Z"/>
    <path class="st14" d="M424.79,301.91c-3.84-49.85,39.7-90.45,79.83-112.61,49.13-27.12,104.05-52.39,157.96-67.51-6.18-106.75,122.67-134.14,186.68-60.18,63.16,72.99,64.51,192.03,67.87,282.29.11,2.83,9.03,30.94,10.62,32.34,2.51,2.2,56.41,10.16,65.57,12.06,115.35,23.98,225.74,77.24,314.3,154.8,4.95,4.34,28.13,24.45,29.81,28.09,2.47,5.37-7.07,23.66-10.14,29.48-16.79,31.87-42.94,54.52-74.94,70.51,31.16,48.17,57.67,100.9,75.49,155.64,110.22,338.66-118.39,714.91-465.02,781.12-305.76,58.4-595.99-117.94-694.81-409.18-47.21-139.12-43.81-291.94,15.77-426.7-38.47-20.92-80.9-55.81-102.22-94.7-1.85-3.37-10.26-20.6-10.2-22.84.11-4.88,36.04-30.5,42.39-35.17,72.14-53.04,149.1-96.38,229.53-135.51,8.28-4.03,36.46-12.94,38.38-21.13.65-2.78-6.31-4.72-8.6-5.83-45.33-22.03-95.03-27.82-139.84-45.15-70.31-27.19-91.54-109.29-32.27-161.07,65.18-56.94,142.28-18.41,197.45,30.58,8.66,7.69,16.05,18.85,26.4,23.97-.27.87-3.63,1.32-2.46,4.92-42.45-39.81-95.3-88.58-158.56-82.53-57.45,5.5-108.62,64.12-87.55,122.18,27.59,76.04,142.33,67.61,202.96,104.28l9.26,8.87c-4.68,11.65-38.47,22.77-50.61,28.68-74.98,36.53-147.5,77.94-215.17,126.75-11.05,7.97-33.07,22.19-41.51,31.16-6.49,6.9-.05,15.32,3.67,22.9,15.15,30.81,49.11,62.09,77.12,81.45,5.71,3.95,24.89,12.3,26.42,18.31-66.77,154.4-62.2,327.91,6.52,480.62,189.89,421.94,753.45,491.64,1031.7,117.67,143.45-192.8,165.48-439.53,49.15-651.78-4.44-8.11-27.9-42.94-28.44-47.76s12.84-9.16,15.51-10.85c27.49-17.48,48.11-37.98,63.1-67.39,2.19-4.3,8.34-15.93,6.59-19.83-1.51-3.36-35.73-33.34-41.39-38.01-102.85-84.9-231.28-136.7-363.76-152.47-18.83-23.14-13.35-57.8-15.3-86.24-5.21-76-20.13-206.16-89.28-252.63-57.37-38.56-145.54-16.96-154.95,57.92-.77,6.15.89,13.96-.26,19.25-1.31,6.06-23.1,10.48-28.92,12.68-45.15,17.08-123.01,49.03-160.87,76.98-29.87,22.05-45.19,58.77-49.69,94.85l-3.28-3.29h-.01Z"/>
    <path class="st14" d="M1131.75,1375.56l1.65-1.65c-.34.87-1.58,1.42-1.65,1.65Z"/>
    <path class="st14" d="M845.99,379.54c-.67-.49-1.34-.65-1.65-1.65l1.65,1.65Z"/>
    <path class="st3" d="M1378.94,677.93c-9.68,9.3-46.66,28.78-59.37,25.01-7.75-2.3-9.15-13.05-7.36-19.9,1.88-7.2,28.19-35.61,35.11-40.86,31.08-23.63,60.37,8.15,31.63,35.76h-.01Z"/>
    <path class="st3" d="M42.78,738.36c7.79-1.6,14.47.69,21.14,4.53,10.33,5.93,37.07,36.5,40.02,47.53,2.67,9.95-3.02,19-13.58,18.68-15.53-.48-56.45-24.75-63.28-39.28-5.96-12.67,2.2-28.68,15.69-31.45h0Z"/>
    <path class="st8" d="M921.98,589.32c-12.39,24.31,12.25,45.12,4.08,69.33-3.44,10.19-12.7,21.24-13.89,32.43-1.31,12.28,8.63,26.62,8.29,39.47-.28,10.96-9.9,24.8-10.06,34.66-.21,12.78,9.17,27.75,8.31,39.64-.84,11.68-10.06,18.67-15.23,27.79-15.49,27.34-8.62,44.59-11.44,72.8-4.94,49.4-49.11,45.78-63.36,85.3-5.81,16.12-2.5,30.9-19.54,41.58-15.66,9.81-31.34,8.84-47.41,23.61-15.1,13.89-15.18,25.38-24.41,40.01-6.97,11.06-25.63,7-37.38,8.87-7.69,1.23-20.29,8.25-26.53,13.12-7.49,5.85-17.17,21.34-23.37,24.53-8.62,4.43-33.33-.72-41.07-6.41-18.89-13.87-1.82-25.41-2.48-42.93-9.27,1.25-5.11-1.42-8.27-8.26-4.26-9.2-24.24-28.2-24.79-33.96-.25-2.67,11.57-27,13.21-28,2.93-1.79,43.26-1,50.47-.87,44.09.77,127.84,15.07,126.17-53.35-.52-21.19-19.21-31.03,6.23-47.01,14.89-9.35,49.15-14.7,46.08-38.35-1.53-11.77-13.38-27.31-12.47-36.93,1.53-16.17,22.62-30.15,22.45-46.17-.2-18.23-20.36-30.8-17.19-47.79,1.96-10.5,12.82-21.82,12.82-33.43s-10.41-20.51-9.99-33.06c.66-19.8,17.71-28.94,16.69-46.28-.33-5.63-2.07-10.27-4.69-15.15-7.28-13.58-26.04-22.29-16.58-37.37,9.06-14.44,22.9-11.98,38.61-11.08,24.62,1.41,52.77,7.45,76.74,13.28v-.02h0Z"/>
    <path class="st3" d="M864.17,1438.34c2.55,2.55-11.84,37.04-13.24,42.93-4.05,1.39-2.65-2.43-4.5-3.21-5.15-2.18-33.82-7.1-34.99-8.47-3.92-4.6,12.18-28.03,13.28-34.38,13.17,1.05,26.14,4.12,39.45,3.12h0Z"/>
    <path class="st3" d="M965.75,1377.21c-6.68-2.09,1.04-18.26,2.09-22.69,1.12-4.74-.45-10.4,2.27-15.08l39.42-1.88c.82,13.44-2.4,26.59-4.96,39.65-9.71-1.88-30.71,2.54-38.82,0h0Z"/>
    <path class="st3" d="M1123.49,1236.81v35.51c0,.9,2.63,3.61,1.65,5.77l-41.29,4.97v-34.69c12.77-4.93,25.79-10.19,39.64-11.56Z"/>
    <path class="st10" d="M988.05,415.88c-2.01,18.19,3.85,52.09,25.16,56.75,18.85,4.12,48.1-15.35,60.73-28.67,34.82,13.87,61.36,26.48,94.15,44.6-4.04,11.74-8.77,24.06-16.55,33.83-2.96,3.72-14.09,12.61-14.83,15.73-1,.2-2.57-.3-3.3,0-8.48-14.57-22.09,1.65-32.41,6.41-62.73,28.94-149.09,16.44-188.61-43.89-6.36-9.71-17.22-45.05-30.96-36.95-6.25,3.69-17.94,22.62-26.31,29.87-17.85,15.45-36.96,21.7-58.68,29.69-6.9-1.72-32.41,2.49-46.25,0-29.52-5.32-55.49-22.78-75.18-44.58-5.96-6.6-14.84-27.36-21.45-11.58-5.33,12.72-6.2,31.51-15.42,44.05l-26.71,35.23c-3.73-.3-8.21,5.92-11.56,8.26-16.76,1.52-36.66,10.63-51.82,18.46-2.35,1.22-5.2.72-4.34,4.66-1.6.17-3.46-.26-4.96,0-.78.13-1.45.86-1.65,1.65-2.29.44-8.24,1.66-9.91,1.65-20.07-.11-43.92-5.15-62.25-14.56-5.19-2.66-28.48-20.34-30.84-19.87-2.13.42-7.31,6.4-7.71,8.92-.67,4.25,1.66,8.65,1.75,13.05,1.83,81.44-49.26,123.54-128.87,95.84-9.69-3.37-41.81-23.78-45.46-23.79-15.71-.03-9.93,31.79-10.76,41.97-1.96,24.16-13.2,44.01-23.1,65.27-.42.9-1.78,1.82-1.65,3.3-27.72-5.63-57.48-22.36-77.75-42.05-2.39-2.32-2.72-5.35-3.19-5.85,13.06-15.73,3.92-42.11,3.3-61.12,19.18-11.47,40.56-29.35,61.25-41.98,21.61-13.2,46.91-24.09,67.59-37.3,15.57,12.87,32.19,26.89,53.77,24.85,25.94-2.46,30.18-49.35,28.82-69.45,42.64-21.11,79.65-37.28,123.88-54.51,14.89,17.23,45.08,39.5,68.61,29.79,20.94-8.63,30.16-43.88,28.84-64.48,49.64-14.29,100.51-25.67,151.96-31.38,1.67,10.11,11.45,21.32,19.05,28.03,23.91,21.12,46.06,20.28,66.89-4.04,8.19-9.57,10.71-19.63,18.13-28.94,56.26,1.33,104.52,9.31,158.57,23.12h.03Z"/>
    <path class="st0" d="M527.2,581.06c-12.96,11.65-29.19,19.76-43.47,30.03-17.91,12.89-40.47,30.93-55.71,46.7-4.45,4.6-22.96,29.67-24.7,30.64-23.58,13.04-41.22,32.71-71.02,45.43-37.01,15.8-72.34,18.41-112.33,14.04,9.9-21.26,21.14-41.11,23.1-65.27.83-10.18-4.95-42,10.76-41.97,3.65,0,35.77,20.42,45.46,23.79,79.61,27.7,130.7-14.4,128.87-95.84-.1-4.41-2.43-8.8-1.75-13.05.4-2.52,5.58-8.5,7.71-8.92,2.36-.46,25.65,17.21,30.84,19.87,18.33,9.41,42.18,14.45,62.25,14.56h0Z"/>
    <path class="st12" d="M1168.09,488.56c18.99,10.5,35.77,22.03,52.86,33.04-11.08,51.74,14.74,76.5,57.81,39.64.64.48,3.67.46,5.5,1.86,14.64,11.27,24.31,11.27,14,30.03-6.27,11.4-20.2,29.89-32.71,34.19-34.17,11.74-78.56,6.56-103.26-21.45-11.47-13.02-29.64-50.67-25.58-67.74.74-3.12,11.87-12.01,14.83-15.73,7.79-9.77,12.51-22.08,16.55-33.83h0Z"/>
    <path class="st0" d="M1133.4,538.11c-5.21,2.14-13.42,8.78-20.36,11.85-20.97,9.25-45.13,13.27-68.02,14.57-53.35,3.02-88.85-14.71-139.18-24.32-36.12-6.9-74.6-8.29-109.4-16.96,21.72-8,40.83-14.24,58.68-29.69,8.36-7.24,20.05-26.17,26.31-29.87,13.73-8.11,24.59,27.23,30.96,36.95,39.52,60.33,125.88,72.82,188.61,43.89,10.32-4.76,23.93-20.98,32.41-6.41h-.01Z"/>
    <path class="st0" d="M750.19,523.25c-10.41,6.57-27,3.65-38.79,4.98-23.16,2.62-49.13,7.3-71.89,12.35-11.27,2.5-16.26,6.73-28.07,5.79l26.71-35.23c9.21-12.54,10.09-31.32,15.42-44.05,6.61-15.78,15.49,4.98,21.45,11.58,19.69,21.8,45.66,39.26,75.18,44.58h-.01Z"/>
    <path class="st12" d="M599.88,554.63c-16.57,11.56-35.8,20.92-56.16,23.12-.87-3.95,1.98-3.45,4.34-4.66,15.16-7.84,35.07-16.94,51.82-18.46h0Z"/>
    <path class="st12" d="M537.11,579.41c.2-.79.87-1.52,1.65-1.65-.22.77-.89,1.51-1.65,1.65Z"/>
    <path class="st3" d="M395,1393.69c-.84.71-5.02-.07-6.48-.86l-31.51-20.03,18.31-36.81c1.78-.43,3.27-.1,4.87.76,2.18,1.17,24.13,18.63,24.57,20.16-1.62,4.83-8.3,35.56-9.75,36.79h0Z"/>
    <path class="st1" d="M490.86,660.34c16.91-9.9,33.58-18.88,51.75-26.71,78.74-33.97,166.1-55.97,252.17-57.52,1.38,1.25-5.64,11.53-6.24,14.41-4.73,23.02,28.69,36.09,24.04,53.71-2.94,11.13-14.34,21.33-15.96,36.93-1.92,18.51,9.9,27.99,9.79,39.5-.07,7.35-13.05,19.64-13.33,34.73-.36,19.57,18.91,32.6,16.48,47.73-1.08,6.71-12.54,18.51-16.2,26.76-5.95,13.41-6.82,18.8-1.92,32.83,5.24,15.01,18.2,20.35.52,31.85-15.02,9.77-37.1,12.92-47.09,30.54-13.55,23.89,15.35,37.09-3.92,67.1-8.2,12.77-15.21,13.3-29.61,14.99-42.43,4.99-91.19.02-134.6.02v-4.96c1.59-.25,3.92-1.55,5.01-2.86l36.6-60.42,4.64-16c8.99-13.63,9.52-19.1,13.21-33.04,2.7-10.17,8.04-19.36,11.09-29.38,4.52-14.84,7.84-30.01,12.13-44.89,7.14,3.35,34.67.84,37.88-5.86,2.22-4.63-11.97-.59-14.07-.66-3.18-.1-5.92-1.71-7.39-1.8-5.25-8.75-6.17-17.91-4.96-28.08.15-1.23,1.77-3.24,1.65-4.96,51.67-5.62,68.72-142.74,6.61-147.01l1.65-3.29c-2.57.31-5.9-.5-8.26-.02-4.09-6.88-16.73-5.52-23.92-4.93-35.34,2.93-114.13,26.12-145.69,42.61-5.6,2.93-13.24,10.04-19.56,11.83-3.26.92-3.01-2.43-2.46-4.09.81-2.49,15.17-4.92,9.95-9.08v.02h0Z"/>
    <path class="st16" d="M490.86,660.34c5.22,4.16-9.14,6.6-9.95,9.08-.55,1.67-.79,5.02,2.46,4.09,6.32-1.79,13.96-8.91,19.56-11.83,31.56-16.49,110.35-39.68,145.69-42.61,7.19-.6,19.83-1.95,23.92,4.93-37.85,7.76-54.45,70.58-49.48,103.25.7,4.58-1.7,4.52,4.88,4.12,1.56,9.73,4.72,17.4,8.26,26.43-.23-.21-2,.47-2.91-.33-4.42-3.89-7.24-18.49-8.79-24.31l-6.5.65c-63.75,28.11-125.1,60.88-186.62,93.37-14.1-10.18-38.18-5.69-54.91-2.88-10.87,1.83-22.83,7.47-34.28,7.01,34.03-28.77,73.39-49.65,103.25-83.4,6.01-6.79,10.06-15.07,16.52-21.48,4.08-.72,1.57,3.18,2.45,6.59.33,1.26-.97,4.69,2.45,3.28,3.08-1.27,5.28-4.31,10.7-5.83,8.86-2.49,17.58-1.21,25.73-2.39,4.56-.66,2.83-4.94.75-7.43-9.05-10.81-27.88-9.53-39.62-10.76,1.57-4.69,4.39-8.34,5.79-13.21,2.76-9.61,4.46-19.83,5.78-29.74,4.24-1.68,11.15-4.43,14.87-6.61h0Z"/>
    <path class="st1" d="M431.4,827.17c61.52-32.49,122.87-65.26,186.62-93.37l6.5-.65c1.55,5.83,4.37,20.42,8.79,24.31.91.8,2.68.12,2.91.33.45,1.15-.46,3.9,0,4.96-14.64,8.08-22.18,20.98-4.96,31.38,1.25,9.3,11.35,13.11,18.3,17.56-12.07,39.18-47.94,68.57-82.72,88.16.12-1.26-1.56-2.74-1.65-3.3-4.37-27.68-10.76-48.73-37.4-62.53-21.32-11.05-69.05-11.73-91.44-3.54-1.13.41-2.76-.57-3.3,1.65-.63-.39-1.13-1.4-1.65-1.65v-3.3h0Z"/>
    <path class="st13" d="M623,922.98c-49.56,75.15-147.16,110.43-223.77,51.16-11.73-9.08-25.3-27.07-35.64-33.73-2.61-1.68-4.87-3.05-8.16-2.56,6.35,20.02,22.61,35.26,35.36,51.34,8.64,10.91,9.03,19.12,23.48,26.08,28.8,13.88,74.25-5.72,105.68-9.54,18.28-2.22,39.25-.72,56.82-3.47v4.96h-9.91c-.11-.89-.79-1.55-1.65-1.65-3.77-.47-4.7,1.59-4.96,1.65-14.97,3.41-34.14,2.97-50.11,5.23-36.16,5.11-86.11,28.73-113.42-6.05-3.5-4.46-5.82-11.33-9.19-15.58-9.75-12.27-19.23-20.74-27.83-34.94-3.66-6.05-15.74-21.05-3.04-22.75,8.7-1.16,33.85,28.75,41.7,35.3,41.65,34.73,98.87,38.68,147.62,17.09,41.68-18.46,70.19-55.88,90.26-95.57-3.7,13.94-4.23,19.41-13.21,33.04h-.03Z"/>
    <path class="st16" d="M636.22,762.75c.51,1.16,13.48,11.92,15.87,13.03,5.69,2.63,12.56,3.83,18.81,3.48-1.22,10.17-.29,19.33,4.96,28.08-19.59-1.07-27.49-2.88-44.6-13.21-17.23-10.41-9.69-23.3,4.96-31.38h0Z"/>
    <path class="st13" d="M436.35,830.48c5.27,11.49-5.97,26.48-13.26,35.46-9.71,11.96-24.96,24.44-39.6,28.98,30.64,44.5,104.51,33.74,148.64,17.29,11.42-4.26,22.04-10.61,33.07-15.66.09.56,1.77,2.05,1.65,3.3-44.63,25.14-126.07,49.36-170.96,14.87-3.59-2.76-20.84-18.81-17.26-23.04.59-.7,13.06-4.74,16.94-7.02,11.88-6.97,31.91-26.75,36.22-39.75,1.74-5.25.39-9.19,1.27-12.78.54-2.22,2.18-1.24,3.3-1.65h0Z"/>
    <path class="st3" d="M624.66,883.33c.34-.87-.27-3.37.39-5.33,1.47-4.42,6.61-7.91,4.55-14.49-.32-.44-7.87,5.58-9.89,2.49,12.53-13.87,22.98-29.22,32.21-45.42,1.71,8.69-13.44,57.89-17.76,60.75-1.52,1.01-3.33.08-4.55.36-1.73.4-3.45.62-4.96,1.65h.01Z"/>
    <path class="st13" d="M629.61,881.68c-1.06,3.77-2.9,8.85-4.91,12.1-.96,1.55-3.26.97-3.35,1.12l-1.65-1.65c2.07-3.05,3.6-6.46,4.96-9.91,1.51-1.03,3.23-1.26,4.96-1.65h-.01Z"/>
    <path class="st3" d="M656.03,815.62c1.8,1.8-1.48,5.09-3.29,3.29-1.8-1.8,1.48-5.09,3.29-3.29Z"/>
    <path class="st13" d="M621.35,873.42c-.36-3.3-.31-3.81,3.3-3.29.77,2.47-1.48,2.91-1.64,3.29h-1.66Z"/>
    <path class="st16" d="M565.19,1005.57v1.65h-4.96c.25-.06,1.19-2.12,4.96-1.65Z"/>
    <path class="st3" d="M371.11,934.54c1.07.55,1.07,1.1,0,1.65v-1.65Z"/>
    <path class="st1" d="M566.84,1007.22h-1.65v-1.65c.86.11,1.55.76,1.65,1.65Z"/>
    <path class="st10" d="M603.18,174.72c0,4.57,1.97,4.57,5.72,5.02,30.55,3.68,34.88,5.01,62,18.1l-32.3,75.95c-10.14-3.19-57.6-52.54-62.47-51.08s-36.41,78.55-44.82,87.44l-42.06-45.46-8.28-5.73-33.06,69.37c.15-1.01,0-2.24,0-3.3v-4.96c11.38-46.5,13.81-70.28,56.3-98.14,32.09-21.04,63.95-33.67,98.97-47.21h0Z"/>
    <path class="st10" d="M722.11,272.18l4.96,28.08c-23,1.97-46.79,6-69.39,10.72-78.73,16.44-153.52,49.23-221.32,91.69,2.62-11.26,4.79-23.26,6.61-34.69,3.41.45,5.42-1.18,8.13-2.6,86.57-45.33,169.54-74.31,266.06-91.56.5-.09,1.21-1.57,1.65-1.65.53-.09,1.12.09,1.65,0s1.12.09,1.65,0h0Z"/>
    <path class="st12" d="M672.56,151.6c9.97,27.28,34.64,45.32,53.71,66.05,5.44,5.92,11.96,17.43,15.67,21.5-6.4,4.3-1.7,18.48-9.91,14.04l-53.6-57.07-5.86,1.73c-.46-.21-1.21.21-1.65,0-27.13-13.09-31.46-14.42-62-18.1-3.75-.45-5.73-.45-5.72-5.02.56-.21,1.48-2.54,3.03-3.12,8.06-3.01,63.14-22.29,66.34-20h-.01Z"/>
    <path class="st12" d="M717.16,273.83l1.65-1.65c-.45.08-1.15,1.56-1.65,1.65Z"/>
    <path class="st10" d="M728.72,326.68v57.81c-1.08.1-2.22-.11-3.3,0l-.83-1.62-.83,1.62c-89.11,9.06-179.22,31.6-263.49,61.08-10.83,3.79-33.76,15.14-42.91,16.57-6.03.94,1.23-6.9,2.27-9.31,3.44-7.96,7.46-17.25,10.11-25.4,3.47.51,5.8-.47,8.81-1.91,97.78-46.8,180.34-84.59,290.16-98.84h.01Z"/>
    <path class="st15" d="M789.83,298.6c5.57,8.47,8.63,14.89,13.21,23.12-24.96-1.02-49.66,1.75-74.33,4.96-109.82,14.26-192.37,52.05-290.16,98.84-3.01,1.44-5.34,2.42-8.81,1.91,2.41-7.42,4.82-17.09,6.61-24.78,67.8-42.46,142.59-75.25,221.32-91.69,22.6-4.72,46.39-8.75,69.39-10.72,6.82-.59,13.77.31,20.58-1.72l42.19.07h0Z"/>
    <path class="st12" d="M803.05,321.73c1.11,1.99,4.98,5.1,6.89,8.81,3.21,6.26,21.01,45.86,17.89,49-12.35.49-24.88-.64-37.23-.06-2.16.1-4.29,1.71-4.89,1.71h-24.78c-8.48,0-22.71,2.39-32.21,3.3v-57.81c24.67-3.2,49.37-5.98,74.33-4.96h0Z"/>
    <path class="st15" d="M476,463.78c32.13-12.52,63.93-25.04,97.45-34.69,1.32,20.6-7.9,55.85-28.84,64.48-23.53,9.7-53.72-12.56-68.61-29.79h0Z"/>
    <path class="st15" d="M829.48,392.76c-7.42,9.31-9.94,19.38-18.13,28.94-20.82,24.32-42.97,25.16-66.89,4.04-7.6-6.71-17.38-17.92-19.05-28.03,34.14-3.79,69.71-5.77,104.06-4.96h.01Z"/>
    <path class="st15" d="M352.11,518.29c1.36,20.09-2.88,66.99-28.82,69.45-21.58,2.05-38.19-11.98-53.77-24.85,25.81-16.5,53.93-30.41,82.59-44.6h0Z"/>
    <path class="st15" d="M1073.94,443.96c-12.63,13.32-41.88,32.79-60.73,28.67-21.31-4.66-27.17-38.56-25.16-56.75,31.06,7.94,56.65,16.43,85.89,28.08h0Z"/>
    <path class="st15" d="M1220.95,521.59c20.31,13.08,38.86,25.39,57.81,39.64-43.08,36.86-68.89,12.1-57.81-39.64h0Z"/>
    <path class="st15" d="M140.69,642.17c.62,19,9.76,45.38-3.3,61.12-6.51-6.81-29.96-31.67-29.74-40.55.07-3.05,21.38-16.3,25.53-19.04,2.94-1.94,6.88-1.15,7.52-1.53h-.01Z"/>
    <path class="st3" d="M776.61,386.16c5.75,4.37-15.46,3.47-16.5,3.29-5.75-4.37,15.46-3.47,16.5-3.29Z"/>
    <path class="st12" d="M725.41,384.5c-.55.05-1.11-.06-1.65,0l.83-1.62.83,1.62h-.01Z"/>
    <path class="st13" d="M418.17,364.68c-17.67-17.07-33.58-36.57-52.06-52.81-34.57-30.37-81.4-59.2-129.63-47.14-9.33,2.33-16.89,8.62-23.97,10.72-7.4,2.19,3.77-8.8,5.02-9.85,49.24-41.4,112.35-11.52,155.18,23.14,8.15,6.59,47.44,42.87,48.32,50.52.75,6.54-3.43,18.2-2.86,25.42Z"/>
    <path class="st10" d="M477.65,1180.65c-12.38,7.15-26.01,12.69-37.84,20.8-16.39,11.23-29.44,32.82-46.42,39.48-26.88,10.54-32.55.11-56.98-.79-24.38-.9-55.15,7.95-74.32,23.1-3.31,2.61-14.8,16.04-16.61,16.46-1.9.43-2.13-.48-3.16-1.63-51.34-94.21-76.34-202.33-70.31-309.73,3.64-64.86,20.37-129.86,47.96-188.31,38.88,3.8,76.27-1.91,112.31-16.47,14.56-5.88,27.85-14.31,42.24-20.53l56.88-13.31c.75,2.86-1.18,3.3-2.46,4.96-36.18,46.89-100.11,67.73-134.58,114.83-9.13,12.48-2.77,10.7-1.83,21.56,2.63,30.46,2.23,57.57,32.51,74.86,3.04,1.74,6.8,1.18,9.7,3.52,2.55,2.05,10.09,18.14,13.41,22.93,9.52,13.73,24.88,34.61,35.42,47.17,36.21,43.17,84.54,16.78,128.16,10.98,16.54-2.19,33.55-2.27,50.17-3.49-6.57,15.87-9.78,26.43.25,41.86,1.58,2.43,11.61,10.79,9.66,12.63-19.13,3.87-40.55,15.21-54.5,28.92-19.04,18.72-27.3,42.4-36.35,66.89-.53.48-3.17,3.11-3.3,3.3h-.01Z"/>
    <path class="st12" d="M958.31,1056.77c-2.37,9.68-.01,6.51,1.38,8.44,2.68,3.74-4.8,5.42-6.33,6.43l1.64-8.25c-2.45-2.4-31.45,11.5-36.41,13.95-26.68,13.18-44.9,28.74-68.73,44.43-3.28,2.16-.45,2.19-7.18,4.37,3.34-3.15,8.32-8.95,11.56-11.56,4.83-3.9,11.21-9.33,16.52-13.21,26.18-19.19,57.63-33.56,87.54-44.6h0Z"/>
    <path class="st2" d="M940.14,1023.73c6.7.73,10.19,11.25,13.21,16.52-18.88,4.1-68.36,39.95-84.34,53.63l-11.46,12.44c-1.56,1.32-3.32,5.11-4.96,6.61-3.07,2.81-13.82,9.87-14.85,12.41-1.91,4.73,3.93,1.13,4.94.8,6.73-2.18,3.9-2.21,7.18-4.37,23.83-15.7,42.05-31.25,68.73-44.43,4.96-2.45,33.96-16.35,36.41-13.95l-1.64,8.25c-24.41,16.08-47.42,25.67-70.16,46.29-3.82,3.46-32.2,32.98-28.94,36.29l20.66-9.87-.85,4.92c1.1.02,2.21.02,3.31,0,6.69-.11,39.97-19.22,50.32-23.18,4.76-1.82,12.4-4.86,16.94-6.19,2.47-.72,8.18.05,8.71-.38.5-.41-.35-3.71,0-4.93,6.04-.82,21.36-1.85,26.41.86,3.59,1.92,6.36,13.84,4.2,17.34-1.29,2.1-38.83,15.52-45.55,18.89-41.76,20.95-68.14,47.44-92.43,86.79l-15.85,19.66c-39.92,44.97-88.08,88.79-151.73,92.73-6.32.39-34.63.42-38.55-2.05-2.47-1.55-5.34-17.27-5.29-21.14h23.95c20.61,0,58.86-22.6,74.29-36.38,6.5-5.8,43.33-45.91,37.2-52.8-6.02-.51-7.96,6.14-9.9,8.25-.82.89-6.65.35-4.96,6.61-1.21,1.39-2.39,2.29-3.3,3.3-7.8,3.65-13.92,11.11-20.93,16.24-30.14,22.09-63.58,32.77-101.42,27.65-4.17-9.9-4.59-20.26-6.49-30.67h23.95c39.46,0,86.96-35.84,110.74-64.31,3.7-4.43,24.52-29.02,20.57-33.14-8.24-.77-8.55,3.96-11.55,8.25-.57.81-1.33,1.22-1.65,1.65l-34.84,28.76c-31.83,22.59-69.19,34.6-108.63,30.48l-3.53-27.84c27.91,6.78,54.79-6.72,78.5-19.79,80.7-44.48,140.42-122.4,225.95-163.87,4.55-2.21,13.26-6.78,17.64-6.31v-.02h-.01Z"/>
    <path class="st13" d="M362.02,894.9c-2.77,12.27-9.82,24.91-21.37,30.65-21.07,10.46-27.24-26.66-29.82-40.55,16.33,6.6,33.27,11.1,51.2,9.9h-.01ZM355.41,899.86c-12.71-.33-26.63-2.58-37.97-8.27-.03,8.6,5.84,31.8,15.94,32.7,6.71.6,23.17-16.27,22.03-24.43Z"/>
    <path class="st10" d="M1247.38,1205.43c-5.27-3.39-8.11-6.85-15.64-9.96-36.07-14.9-77.86-3.41-107.45-32.95-9.87-9.85-4.5-16.47-5.77-28.91-5.78-56.4-22.18-130.51-85.15-147.75-18.46-5.05-19.7,2.61-25-21.25-5.49-24.7,7.22-40.41,4.47-63.93-1.1-9.41-9.83-18.38-9.66-28.11.12-6.75,6.5-16.86,7.62-23.48,4.73-27.9-13.35-44.3-11.25-67.42.86-9.43,7.64-15.21,11.22-23.46,6.05-13.97,8.94-28.71,4.88-43.69-2.02-7.44-11.77-19.38-12.46-24-.3-1.99-.6-3.33,1.32-4.64,36.65-1.02,73.34-1.91,109.78-5.84,16.92-1.82,16.97-.79,33.09.2,13.42.82,34.8,1.14,47.98-.06,6.04-.55,11.64-4.94,17.83-3.03,60.48,77.37,95.96,176.41,103.55,274.75,6.6,85.46-7.78,181.44-39.59,261-.96,2.41-5.19,12.86-8.27,10.69-.27-.19-.82-3.67-3.23-5.85-6.18-5.57-12.08-8.33-18.27-12.31h0Z"/>
    <path class="st12" d="M953.36,1040.25c.99-.22,2.34.23,3.3,0,.95,4.43-2.29,3.27-4.56,4.45-33.77,17.52-53.55,31.41-82.99,55.02-1.31,1.05-9.34,4.73-11.56,6.61l11.46-12.44c15.99-13.68,65.46-49.53,84.34-53.63h.01Z"/>
    <path class="st16" d="M842.67,346.51c-5.58-5.36-8.09-14.99-11.85-22-21.5-40.14-49.64-77.79-79.79-111.82-15.75-17.78-40.96-38.42-52.75-57.92-1.98-3.28-9.53-17.74-9.3-20.43.75-8.9,27.66-19.56,35.78-20.55,62.66-7.67,85.34,55.47,97.62,105.19,10.2,41.32,15.55,85.25,20.29,127.53Z"/>
    <path class="st8" d="M898.85,382.85l-33.04-1.65c.41-45.72-6.54-92.41-15.63-137.16-9.95-48.97-26.4-116.85-73.54-142.85-29.66-16.36-69.42-11.53-95.83,9.11-.92-57.94,63.6-83.65,112.77-65.7,68.97,25.19,92.38,134.44,100.09,198.88,5.54,46.27,5.65,92.79,5.17,139.36h0ZM893.9,377.9c.91-74.92-.4-152.33-22.66-224.29-19.76-63.89-62.36-129.95-139.96-105.98-10.79,3.33-28.94,13.61-32.29,24.68,47.36-12.2,88.54-9.33,121.42,29.72,40.98,48.67,52.53,171.05,55.38,233.68.62,13.66-1.48,26.96-1.7,40.52l19.81,1.68h0Z"/>
    <path class="st2" d="M553.63,1170.74c-.56,7.06,1.55,12.63,1.65,18.17-6.83-1.25-5.12,2.43-5.03,7.48.14,7.08,2.92,13.26,3.35,19.8,2.24,33.99.16,66.62,10.42,100.24l6.13,11.22c.91,3.25,2.66,12.34,6.63,9.07-5.95-24.17-5.98-48.88-8.28-73.49-.07-.75-.88-1.48-1.65-1.65-.16-.8-.12-2.42,0-3.3,5.45-.36,4.82,7.4,9.9,6.6.7-1.91-1.65-3.69-1.65-4.12v-34.69c0-.63,5.69-8.78,6.61-10.74,3.92.91,4.41-4.04,5.27-4.56,5.58-3.32,4.31,2.66,5.93,5.68,8.06,14.99,3.56,11.91,4,26.13,1.36,44.71,13.65,100.3,26.56,143.24,20.87,69.43,52.63,138.76,100.28,193.74,1.75,4.14-6.39,2.43-8.21,1.59-.85-.39-12.46-10.64-14.15-12.28-37.71-36.52-72.08-92.67-94.46-140.09-5.98-12.66-10.02-30.31-18.05-40.67-1.74-2.25,1.57-4.13-3.86-4.32-1.19-.04-3.35-.65-3.33.85.45,3.72,2.06,7.26,3.33,10.72-2.62,3.18.09,11.01,1.15,14.54,9.18,30.36,25.95,67.89,41.51,95.59,4.24,7.54,16.14,21.98,18.43,27.82,2.63,6.7-6.98-1.93-8.28-3.29-42.63-44.61-79.2-104.82-102.4-161.89-10.29-25.32-21.14-52.44-21.45-80.13-3.46-1.09-3.94,2.48-4.95,4.95l-1.65-3.3c.06-.77.12-3.19,0-3.3,2.5-2.54,1.63-5.88,1.7-9.02.62-27.85-.06-54.08,10.31-80.64,1.01-2.59.44-5.33,4.52-4.49-.35,8.73-.05,17.68,0,26.43-2.75,3.86-2.82,13.98,0,18.17.82,18.28,3.81,39.03,8.42,56.82,1.6,6.15,3.49,14.51,7.28,19.15,1.73.15.39-2.82.82-3.3.19-.21,2.3.46,2.96-.3,1.13-1.28-4.25-28.15-4.6-33.58-2.18-34.66-.17-71.18,7.39-104.92l7.46.05v.02h0Z"/>
    <path class="st16" d="M242.7,308.94c60.59-8.82,125.95,65.09,164.81,103.68,1.25,2.98-8.46,28.83-11.58,29.16-2.63.28-23.56-10.38-28.5-12.31-21.03-8.18-43.01-16.34-64.56-22.98s-73.82-14.02-85.22-32.06c-15.04-23.79-5.24-61.08,25.06-65.49h-.01Z"/>
    <path class="st12" d="M509.03,1292.97c1-2.46,1.49-6.04,4.95-4.95.32,27.69,11.16,54.81,21.45,80.13,23.19,57.07,59.77,117.28,102.4,161.89,1.3,1.36,10.92,9.99,8.28,3.29-2.3-5.84-14.2-20.28-18.43-27.82-15.56-27.69-32.33-65.23-41.51-95.59-1.07-3.52-3.77-11.36-1.15-14.54.9,2.44,2.7,4.87,3.3,6.61,16.43,47.46,33.02,91.94,62.4,133.33,4.03,5.68,22.5,26.11,23.47,29.4,2.09,7.1-5.03-1.52-5.5-1.92-67.74-57.7-148.04-178.85-161.31-266.53,2.04-.33,1.25-2.32,1.65-3.3h0Z"/>
    <path class="st3" d="M585.01,1383.82c2.15,4.22,3.29,9.04,4.96,13.21l-1.65,4.96c-.6-1.74-2.41-4.17-3.3-6.61-1.27-3.45-2.88-7-3.33-10.72-.02-1.5,2.14-.89,3.33-.85h-.01Z"/>
    <path class="st3" d="M637.84,1499.46c.84.75,7.83,13.93,8.28,16.5-2.3,2.43-11.05-12.68-11.48-14.13-.88-3.01,2.2-3.25,3.19-2.37h0Z"/>
    <path class="st15" d="M509.03,1292.97c-.4.98.39,2.97-1.65,3.3-.64-4.24-.21-3.71,0-6.61l1.65,3.3h0Z"/>
    <path class="st12" d="M766.71,1180.65c3-4.29,3.31-9.02,11.55-8.25,3.95,4.11-16.88,28.71-20.57,33.14-23.78,28.47-71.28,64.31-110.74,64.31h-23.95c1.9,10.42,2.33,20.77,6.49,30.67,37.84,5.12,71.28-5.56,101.42-27.65,7-5.13,13.12-12.59,20.93-16.24-.43.47-.57,3.14-2.36,5-30.69,31.87-80.84,51.05-124.83,42.9l-6.61-39.64c23.23,1.17,44.65-.39,66.5-8.65,29.82-11.28,68.44-43.33,83.88-71.39,1.81-3.28,3.42-4.65-1.72-4.2h.01Z"/>
    <path class="st12" d="M543.72,1165.79l11.55-4.95c1.7,3.55-1.51,8.19-1.64,9.9l-7.46-.05c-7.56,33.74-9.57,70.25-7.39,104.92.34,5.43,5.73,32.3,4.6,33.58-.66.75-2.77.08-2.96.3-5.27-20.35-6.4-41.75-6.61-62.77,2.73-2.09,2.73-9.48,0-11.56.6-25.88,3.69-44.73,9.91-69.37h0Z"/>
    <path class="st12" d="M555.28,1188.91c.08,4.39-.21,8.84,0,13.21.13,2.86-2.02,10.62,1.65,13.21h1.65c-.42,10.6-.35,22.41,0,33.04l-1.2.92,1.2.73c.02.55-.02,1.1,0,1.65.97,23.4,5.26,53.45,11.56,75.98l-6.13-11.22c-10.26-33.62-8.18-66.26-10.42-100.24-.43-6.54-3.21-12.72-3.35-19.8-.1-5.05-1.8-8.73,5.03-7.48h.01Z"/>
    <path class="st2" d="M556.93,1215.34c-3.67-2.6-1.52-10.36-1.65-13.21,3.3,2.85,1.13,9.08,1.65,13.21Z"/>
    <path class="st3" d="M717.98,1291.32c1.07.55,1.07,1.1,0,1.65v-1.65Z"/>
    <path class="st3" d="M447.92,325.03c0-1.4-1.26.19,0-4.96v4.96Z"/>
    <path class="st12" d="M765.06,265.57c5.08.84,21.17,27.56,24.78,33.04l-42.19-.07c-6.81,2.03-13.76,1.13-20.58,1.72l-4.96-28.08c14.28-2.37,28.77-3.65,42.95-6.61Z"/>
    <path class="st15" d="M523.9,1236.81c-2.82-4.19-2.75-14.31,0-18.17.03,6.02-.27,12.16,0,18.17Z"/>
    <path class="st2" d="M533.81,1246.72c-.04-3.84-.09-7.72,0-11.56,2.73,2.09,2.73,9.48,0,11.56Z"/>
    <path class="st3" d="M869.12,1099.72l1.65,1.65c-5.3,3.89-11.68,9.32-16.52,13.21l-1.65-1.65c1.63-1.49,3.4-5.29,4.96-6.61,2.22-1.88,10.25-5.55,11.56-6.61h0Z"/>
    <path class="st3" d="M558.58,1251.68c-.02-.55.02-1.1,0-1.65s.02-1.1,0-1.65l1.64,2.46-1.64.84h0Z"/>
    <path class="st15" d="M568.5,1263.24c-.82-.22-1.48-.82-1.65-1.65.77.17,1.58.9,1.65,1.65Z"/>
    <path class="st2" d="M1100.36,1456.51c1.95,1.86-10.39,11.51-12.41,13.17-2.34,1.93-19.26,14.71-20.61,13.24.15-5,3.24-25.29,6.57-27.27,5.29-3.14,20.06.54,26.44.86h.01,0Z"/>
    <path class="st2" d="M1001.26,1520.93c.57,3.36-2.13,4.7-4.4,6.32-2.01,1.44-24.38,12.86-25.32,11.83,3.48-22.22,8.6-24.25,29.72-18.15h0Z"/>
    <path class="st16" d="M623,922.98l-4.64,16-36.6,60.42c-1.09,1.31-3.42,2.61-5.01,2.86-17.57,2.75-38.54,1.25-56.82,3.47-31.42,3.82-76.87,23.42-105.68,9.54-14.45-6.96-14.83-15.16-23.48-26.08-12.74-16.09-29-31.32-35.36-51.34,3.29-.5,5.55.87,8.16,2.56,10.34,6.66,23.91,24.65,35.64,33.73,76.61,59.27,174.21,23.99,223.77-51.16h.02Z"/>
    <path class="st14" d="M679.16,627.31c62.12,4.27,45.07,141.39-6.61,147.01-18.07,1.96-24.31-5.36-36.34-16.52-3.54-9.03-6.7-16.7-8.26-26.43-4.03-25.11,2.3-62.96,18.21-83.37,6.56-8.42,21.93-21.45,33-20.69ZM675.48,632.68c-43.87,5.45-57.08,100.11-29.34,129.23,12.09,12.69,33.83,9.72,45.45-2.43,18.85-19.72,24.09-53.91,22.33-80.22-1.44-21.49-12.39-49.82-38.44-46.59h0Z"/>
    <path class="st13" d="M672.56,624c2.36-.48,5.69.32,8.26.02l-1.65,3.29c-11.07-.76-26.43,12.26-33,20.69-15.9,20.41-22.24,58.27-18.21,83.37-6.58.4-4.19.46-4.88-4.12-4.97-32.67,11.63-95.49,49.48-103.25h0Z"/>
    <path class="st13" d="M672.56,774.32c.12,1.71-1.5,3.72-1.65,4.96-6.26.35-13.13-.85-18.81-3.48-2.39-1.11-15.37-11.87-15.87-13.03-.46-1.06.45-3.8,0-4.96,12.03,11.15,18.27,18.48,36.34,16.52h-.01Z"/>
    <path class="st16" d="M565.19,896.55c-11.03,5.05-21.65,11.4-33.07,15.66-44.12,16.46-118,27.21-148.64-17.29,14.64-4.53,29.89-17.01,39.6-28.98,7.29-8.99,18.53-23.97,13.26-35.46,22.39-8.19,70.12-7.5,91.44,3.54,26.64,13.8,33.03,34.86,37.4,62.53h.01,0Z"/>
    <path class="st15" d="M854.25,1114.58c-3.24,2.62-8.22,8.41-11.56,11.56-1.01.33-6.85,3.92-4.94-.8,1.03-2.55,11.78-9.6,14.85-12.41l1.65,1.65Z"/>
    <path class="st16" d="M355.41,899.86c1.14,8.17-15.32,25.04-22.03,24.43-10.1-.91-15.96-24.1-15.94-32.7,11.33,5.69,25.26,7.94,37.97,8.27Z"/>
    <path class="st13" d="M893.9,377.9l-19.81-1.68c.22-13.56,2.32-26.86,1.7-40.52-2.86-62.63-14.4-185.01-55.38-233.68-32.88-39.05-74.06-41.92-121.42-29.72,3.35-11.07,21.5-21.35,32.29-24.68,77.59-23.97,120.2,42.09,139.96,105.98,22.26,71.97,23.57,149.38,22.66,224.29h0Z"/>
    <path class="st15" d="M558.58,1250.03l-1.2-.73,1.2-.92c.02.55-.02,1.1,0,1.65Z"/>
    <path class="st3" d="M675.48,632.68c26.05-3.23,37,25.09,38.44,46.59,1.76,26.31-3.48,60.5-22.33,80.22-11.62,12.15-33.36,15.12-45.45,2.43-27.74-29.12-14.53-123.79,29.34-129.23h0ZM683.68,644.11c-4.48.94-15.9,10.69-18.48,14.65-10.71,16.44-13.07,51.91,4.89,64.35,24.49,16.95,43.31-31.03,40.07-51.63-1.66-10.58-14.01-29.99-26.47-27.37h-.01ZM640.05,742.41c17.66,20.74,45.44-10.85,19.91-24.04-14.03-7.25-29.85,12.37-19.91,24.04Z"/>
    <path class="st14" d="M683.68,644.11c12.46-2.62,24.81,16.79,26.47,27.37,3.24,20.6-15.58,68.59-40.07,51.63-17.96-12.44-15.6-47.91-4.89-64.35,2.58-3.96,14.01-13.71,18.48-14.65h.01ZM682.06,649.16c-23.3,6.1-31.2,70.41-3.7,72.4,32.84,2.38,36.16-80.89,3.7-72.4Z"/>
    <path class="st14" d="M640.05,742.41c-9.94-11.67,5.88-31.29,19.91-24.04,25.53,13.2-2.25,44.79-19.91,24.04ZM648.96,721.78c-12.89,3.83-8.26,27.69,9.22,22.46,14.25-4.26,6.96-27.27-9.22-22.46Z"/>
    <path class="st17" d="M682.06,649.16c32.46-8.5,29.14,74.78-3.7,72.4-27.5-1.99-19.6-66.3,3.7-72.4Z"/>
    <path class="st17" d="M648.96,721.78c16.17-4.81,23.47,18.2,9.22,22.46-17.48,5.23-22.11-18.63-9.22-22.46Z"/>
  </g>
  <path class="st5" d="M1757.4,914.55c-50.36,6.1-112.93,9.92-154.9,3.82s-95.38-32.05-100.72-101.48c-7.63-96.14-7.63-259.43.76-334.97s48.83-111.4,129.72-119.8c40.44-3.82,96.91-4.58,169.39,3.81,63.33,7.63,94.62,46.55,81.64,115.98l-11.45,62.57c-4.58,25.94-22.13,42.73-45.02,44.26l-57.23,3.05c-28.23,1.52-47.31-23.66-47.31-48.83v-6.11c0-15.26-10.68-22.13-19.84-21.36l-25.94,2.29c-14.5,1.52-22.89,6.87-23.65,26.71-1.53,42.73-6.1,169.4-2.29,228.91.76,16.02,8.39,20.6,22.13,19.84l12.97-.76c12.21-.76,16.02-3.05,18.31-19.07l2.29-16.03c3.82-27.47,22.13-45.02,48.07-46.54l52.65-3.82c27.47-2.29,52.65,24.42,48.07,53.41l-7.63,45.78c-11.45,66.38-39.68,102.25-90.04,108.35h.02Z"/>
  <path class="st5" d="M2000.79,907.82c12.11,2.91,17.92,1.45,23.24.48,8.23-1.45,13.07-14.04,14.53-27.6l16.95-209.18c1.45-15.5,12.11-26.15,30.02-27.6l40.19-3.39c19.37-1.45,33.9,14.53,31.96,32.93l-21.31,206.28c-7.75,75.05-30.51,113.31-88.61,113.31h-64.4c-70.7,0-86.68-30.02-88.61-97.81l-6.29-219.35c-.48-16.95,11.14-28.57,26.63-30.51l39.71-4.84c19.85-2.42,34.38,12.59,34.38,30.02l-1.94,210.15c0,15.5,2.91,24.7,13.56,27.12h0Z"/>
  <path class="st5" d="M2277.82,780.8c8.23,2.91,17.92,2.42,25.18,0,6.78-2.42,11.14-5.81,11.62-12.11l.48-6.29c.48-7.75-4.84-19.85-18.88-24.7l-48.42-16.46c-44.06-15.01-76.51-52.3-77.48-100.72l-.48-21.31c-.97-64.89,28.09-87.64,93.46-91.52l51.81-2.9c72.15-3.87,104.11,21.79,96.36,81.83l-4.36,32.44c-2.91,22.27-15.98,29.54-30.99,29.05l-20.82-.97c-20.34-.97-32.93-11.14-32.93-30.99v-3.87c0-10.65-5.33-20.82-20.34-19.85l-16.46.97c-11.62.48-22.76,12.59-22.27,23.73l.48,9.69c.48,6.78,6.78,16.95,22.76,23.24l43.1,16.95c50.36,19.37,79.9,52.3,72.63,100.72l-1.94,13.07c-6.29,41.64-27.6,69.73-62.46,75.54-34.86,5.81-61.5,5.33-85.22,2.42-55.69-6.78-77.48-35.83-77.48-76.51v-12.59c0-24.7,16.46-33.41,31.47-33.9l27.12-.97c17.92-.48,29.05,13.07,30.99,30.02l.48,3.87c.97,5.81,4.36,9.2,12.59,12.11h0Z"/>
  <path class="st5" d="M2586.05,1003.44c-31.96,3.87-71.67,6.29-98.3,2.42-26.63-3.87-60.53-20.34-63.92-64.4-4.84-61.01-4.84-164.64.48-212.58,5.33-47.94,30.99-70.7,82.32-76.02,25.66-2.42,61.5-2.91,107.5,2.42,40.19,4.84,60.04,29.54,51.81,73.6l-7.26,39.71c-2.91,16.46-14.04,27.12-28.57,28.09l-36.32,1.94c-17.92.97-30.02-15.01-30.02-30.99v-3.87c0-9.68-6.78-14.04-12.59-13.56l-16.46,1.45c-9.2.97-14.53,4.36-15.01,16.95-.97,27.12-3.87,107.5-1.45,145.27.48,10.17,5.33,13.07,14.04,12.59l8.23-.48c7.75-.48,10.17-1.94,11.62-12.1l1.45-10.17c2.42-17.43,14.04-28.57,30.51-29.54l33.41-2.42c17.43-1.45,33.41,15.5,30.51,33.89l-4.84,29.05c-7.26,42.13-25.18,64.89-57.14,68.76h0Z"/>
  <path class="st5" d="M2924.85,604.27l-22.76,168.99c-5.81,43.1-15.98,86.19-81.83,86.68l-56.65.48c-57.62.48-86.19-17.43-86.68-93.94l-1.45-168.99c-.48-53.75,9.68-81.83,49.39-84.74l98.3-7.26c82.8-6.29,110.4,33.9,101.69,98.78h-.01ZM2777.64,784.89l21.79-.97c12.11-.48,11.62-8.72,12.11-15.01l15.01-164.15c.97-9.68-2.42-13.07-13.07-11.62l-33.9,4.84c-8.23.97-11.62,5.81-11.62,15.5l-.97,158.83c0,7.75-.48,13.07,10.65,12.59h0Z"/>
  <path class="st5" d="M1646.68,1363.65c12.66,4.47,27.55,3.72,38.72,0,10.42-3.72,17.12-8.93,17.87-18.62l.75-9.68c.75-11.91-7.45-30.53-29.04-37.97l-74.46-25.31c-67.76-23.08-117.64-80.41-119.13-154.87l-.74-32.76c-1.49-99.78,43.19-134.77,143.7-140.73l79.67-4.47c110.94-5.96,160.09,33.51,148.17,125.83l-6.7,49.89c-4.47,34.25-24.57,45.42-47.65,44.68l-32.02-1.49c-31.27-1.49-50.63-17.13-50.63-47.65v-5.96c0-16.38-8.19-32.02-31.27-30.53l-25.32,1.49c-17.87.74-34.99,19.36-34.25,36.48l.75,14.89c.75,10.42,10.42,26.06,35,35.74l66.27,26.06c77.44,29.79,122.85,80.42,111.69,154.87l-2.98,20.1c-9.68,64.03-42.44,107.22-96.05,116.16-53.61,8.93-94.56,8.19-131.05,3.72-85.63-10.42-119.13-55.1-119.13-117.65v-19.36c0-37.97,25.32-51.38,48.4-52.12l41.7-1.49c27.55-.75,44.68,20.1,47.65,46.16l.75,5.96c1.49,8.94,6.7,14.15,19.36,18.62h-.03,0Z"/>
  <path class="st5" d="M2107.58,1182.69l-5.33,37.77c-2.42,18.88-11.62,29.05-29.05,30.02l-53.75,2.42-6.29,217.9c-.48,19.85-10.65,30.51-29.54,31.47l-33.41,1.94c-22.76.97-32.44-10.17-31.96-32.93l8.23-217.9-53.75,2.42c-20.82.97-34.86-15.01-32.93-33.41l3.87-33.41c2.42-19.37,15.98-26.15,30.51-27.12l200.95-11.14c17.43-.97,34.86,13.56,32.44,31.96h.01Z"/>
  <path class="st5" d="M2383.59,1172.57l-22.76,168.99c-5.81,43.1-15.98,86.19-81.83,86.68l-56.65.48c-57.62.48-86.19-17.43-86.68-93.94l-1.45-168.99c-.48-53.75,9.68-81.83,49.39-84.74l98.3-7.26c82.8-6.29,110.4,33.9,101.69,98.78h-.01ZM2236.38,1353.19l21.79-.97c12.1-.48,11.62-8.72,12.1-15.01l15.01-164.15c.97-9.68-2.42-13.07-13.08-11.62l-33.89,4.84c-8.23.97-11.62,5.81-11.62,15.5l-.97,158.83c0,7.75-.48,13.07,10.65,12.59h.01Z"/>
  <path class="st5" d="M2395.49,1196.5c.48-17.43,10.65-30.02,30.51-30.99l114.76-5.81c72.15-3.87,90.55,32.93,90.55,76.99s-23.73,94.91-48.42,133.65l50.84,68.76c11.14,15.5,4.84,33.9-7.75,42.13l-33.41,21.31c-16.46,10.17-31.96,5.33-42.61-8.23l-71.67-92-5.33,76.99c-1.45,18.4-11.14,28.57-27.6,30.51l-28.08,2.91c-17.92,1.94-33.9-14.04-32.93-31.96l11.14-284.24v-.02h0ZM2512.67,1328.69c8.23-16.46,15.01-31.47,20.82-56.17,1.45-6.29-3.39-17.43-13.56-16.95l-30.99,1.94-5.33,81.83,16.95-1.94c5.81-.48,9.69-4.36,12.11-8.72h0Z"/>
  <path class="st5" d="M2881.55,1108.11l-5.33,35.35c-2.42,16.95-11.62,27.12-29.05,27.6l-81.35,1.45-2.91,36.8,53.75-2.42c24.21-.97,36.8,14.53,34.38,34.38l-2.91,24.21c-1.94,19.37-10.65,31.47-33.41,31.96l-58.11,2.42-2.42,31.47,68.76-3.87c24.7-1.45,37.29,14.04,34.38,36.32l-4.36,31.47c-2.42,16.46-11.14,26.63-30.99,27.6l-130.26,4.84c-20.34.48-30.99-15.01-30.51-30.99l11.62-285.21c.97-17.92,11.62-28.57,30.02-29.54l148.17-7.75c19.37-.97,33.41,15.98,30.51,33.9h.02Z"/>
</svg>